<?xml version="1.0" encoding="utf-8" standalone="no"?>
<!DOCTYPE svg PUBLIC "-//W3C//DTD SVG 1.1//EN"
  "http://www.w3.org/Graphics/SVG/1.1/DTD/svg11.dtd">
<svg xmlns:xlink="http://www.w3.org/1999/xlink" width="962.36129pt" height="766.8pt" viewBox="0 0 962.36129 766.8" xmlns="http://www.w3.org/2000/svg" version="1.1">
 <metadata>
  <rdf:RDF xmlns:dc="http://purl.org/dc/elements/1.1/" xmlns:cc="http://creativecommons.org/ns#" xmlns:rdf="http://www.w3.org/1999/02/22-rdf-syntax-ns#">
   <cc:Work>
    <dc:type rdf:resource="http://purl.org/dc/dcmitype/StillImage"/>
    <dc:date>2025-11-15T12:36:17.792492</dc:date>
    <dc:format>image/svg+xml</dc:format>
    <dc:creator>
     <cc:Agent>
      <dc:title>Matplotlib v3.10.7, https://matplotlib.org/</dc:title>
     </cc:Agent>
    </dc:creator>
   </cc:Work>
  </rdf:RDF>
 </metadata>
 <defs>
  <style type="text/css">*{stroke-linejoin: round; stroke-linecap: butt}</style>
 </defs>
 <g id="figure_1">
  <g id="patch_1">
   <path d="M 0 766.8 
L 962.36129 766.8 
L 962.36129 0 
L 0 0 
z
" style="fill: #ffffff"/>
  </g>
  <g id="axes_1">
   <g id="patch_2">
    <path d="M 122.864516 170.523871 
C 129.775538 170.523871 136.404432 167.778093 141.291263 162.891263 
C 146.178093 158.004432 148.923871 151.375538 148.923871 144.464516 
C 148.923871 137.553494 146.178093 130.9246 141.291263 126.03777 
C 136.404432 121.150939 129.775538 118.405161 122.864516 118.405161 
C 115.953494 118.405161 109.3246 121.150939 104.43777 126.03777 
C 99.550939 130.9246 96.805161 137.553494 96.805161 144.464516 
C 96.805161 151.375538 99.550939 158.004432 104.43777 162.891263 
C 109.3246 167.778093 115.953494 170.523871 122.864516 170.523871 
z
" clip-path="url(#p9b8601eac4)" style="fill: #add8e6; stroke: #000000; stroke-width: 2; stroke-linejoin: miter"/>
   </g>
   <g id="patch_3">
    <path d="M 122.864516 344.252903 
C 129.775538 344.252903 136.404432 341.507125 141.291263 336.620295 
C 146.178093 331.733465 148.923871 325.10457 148.923871 318.193548 
C 148.923871 311.282527 146.178093 304.653632 141.291263 299.766802 
C 136.404432 294.879972 129.775538 292.134194 122.864516 292.134194 
C 115.953494 292.134194 109.3246 294.879972 104.43777 299.766802 
C 99.550939 304.653632 96.805161 311.282527 96.805161 318.193548 
C 96.805161 325.10457 99.550939 331.733465 104.43777 336.620295 
C 109.3246 341.507125 115.953494 344.252903 122.864516 344.252903 
z
" clip-path="url(#p9b8601eac4)" style="fill: #add8e6; stroke: #000000; stroke-width: 2; stroke-linejoin: miter"/>
   </g>
   <g id="patch_4">
    <path d="M 122.864516 431.117419 
C 129.775538 431.117419 136.404432 428.371641 141.291263 423.484811 
C 146.178093 418.597981 148.923871 411.969086 148.923871 405.058065 
C 148.923871 398.147043 146.178093 391.518148 141.291263 386.631318 
C 136.404432 381.744488 129.775538 378.99871 122.864516 378.99871 
C 115.953494 378.99871 109.3246 381.744488 104.43777 386.631318 
C 99.550939 391.518148 96.805161 398.147043 96.805161 405.058065 
C 96.805161 411.969086 99.550939 418.597981 104.43777 423.484811 
C 109.3246 428.371641 115.953494 431.117419 122.864516 431.117419 
z
" clip-path="url(#p9b8601eac4)" style="fill: #add8e6; stroke: #000000; stroke-width: 2; stroke-linejoin: miter"/>
   </g>
   <g id="patch_5">
    <path d="M 122.864516 561.414194 
C 129.775538 561.414194 136.404432 558.668416 141.291263 553.781585 
C 146.178093 548.894755 148.923871 542.26586 148.923871 535.354839 
C 148.923871 528.443817 146.178093 521.814922 141.291263 516.928092 
C 136.404432 512.041262 129.775538 509.295484 122.864516 509.295484 
C 115.953494 509.295484 109.3246 512.041262 104.43777 516.928092 
C 99.550939 521.814922 96.805161 528.443817 96.805161 535.354839 
C 96.805161 542.26586 99.550939 548.894755 104.43777 553.781585 
C 109.3246 558.668416 115.953494 561.414194 122.864516 561.414194 
z
" clip-path="url(#p9b8601eac4)" style="fill: #add8e6; stroke: #000000; stroke-width: 2; stroke-linejoin: miter"/>
   </g>
   <g id="patch_6">
    <path d="M 122.864516 691.710968 
C 129.775538 691.710968 136.404432 688.96519 141.291263 684.078359 
C 146.178093 679.191529 148.923871 672.562635 148.923871 665.651613 
C 148.923871 658.740591 146.178093 652.111697 141.291263 647.224866 
C 136.404432 642.338036 129.775538 639.592258 122.864516 639.592258 
C 115.953494 639.592258 109.3246 642.338036 104.43777 647.224866 
C 99.550939 652.111697 96.805161 658.740591 96.805161 665.651613 
C 96.805161 672.562635 99.550939 679.191529 104.43777 684.078359 
C 109.3246 688.96519 115.953494 691.710968 122.864516 691.710968 
z
" clip-path="url(#p9b8601eac4)" style="fill: #add8e6; stroke: #000000; stroke-width: 2; stroke-linejoin: miter"/>
   </g>
   <g id="patch_7">
    <path d="M 383.458065 170.523871 
C 390.369086 170.523871 396.997981 167.778093 401.884811 162.891263 
C 406.771641 158.004432 409.517419 151.375538 409.517419 144.464516 
C 409.517419 137.553494 406.771641 130.9246 401.884811 126.03777 
C 396.997981 121.150939 390.369086 118.405161 383.458065 118.405161 
C 376.547043 118.405161 369.918148 121.150939 365.031318 126.03777 
C 360.144488 130.9246 357.39871 137.553494 357.39871 144.464516 
C 357.39871 151.375538 360.144488 158.004432 365.031318 162.891263 
C 369.918148 167.778093 376.547043 170.523871 383.458065 170.523871 
z
" clip-path="url(#p9b8601eac4)" style="fill: #add8e6; stroke: #000000; stroke-width: 2; stroke-linejoin: miter"/>
   </g>
   <g id="patch_8">
    <path d="M 383.458065 431.117419 
C 390.369086 431.117419 396.997981 428.371641 401.884811 423.484811 
C 406.771641 418.597981 409.517419 411.969086 409.517419 405.058065 
C 409.517419 398.147043 406.771641 391.518148 401.884811 386.631318 
C 396.997981 381.744488 390.369086 378.99871 383.458065 378.99871 
C 376.547043 378.99871 369.918148 381.744488 365.031318 386.631318 
C 360.144488 391.518148 357.39871 398.147043 357.39871 405.058065 
C 357.39871 411.969086 360.144488 418.597981 365.031318 423.484811 
C 369.918148 428.371641 376.547043 431.117419 383.458065 431.117419 
z
" clip-path="url(#p9b8601eac4)" style="fill: #add8e6; stroke: #000000; stroke-width: 2; stroke-linejoin: miter"/>
   </g>
   <g id="patch_9">
    <path d="M 470.322581 170.523871 
C 477.233602 170.523871 483.862497 167.778093 488.749327 162.891263 
C 493.636157 158.004432 496.381935 151.375538 496.381935 144.464516 
C 496.381935 137.553494 493.636157 130.9246 488.749327 126.03777 
C 483.862497 121.150939 477.233602 118.405161 470.322581 118.405161 
C 463.411559 118.405161 456.782664 121.150939 451.895834 126.03777 
C 447.009004 130.9246 444.263226 137.553494 444.263226 144.464516 
C 444.263226 151.375538 447.009004 158.004432 451.895834 162.891263 
C 456.782664 167.778093 463.411559 170.523871 470.322581 170.523871 
z
" clip-path="url(#p9b8601eac4)" style="fill: #add8e6; stroke: #000000; stroke-width: 2; stroke-linejoin: miter"/>
   </g>
   <g id="patch_10">
    <path d="M 470.322581 344.252903 
C 477.233602 344.252903 483.862497 341.507125 488.749327 336.620295 
C 493.636157 331.733465 496.381935 325.10457 496.381935 318.193548 
C 496.381935 311.282527 493.636157 304.653632 488.749327 299.766802 
C 483.862497 294.879972 477.233602 292.134194 470.322581 292.134194 
C 463.411559 292.134194 456.782664 294.879972 451.895834 299.766802 
C 447.009004 304.653632 444.263226 311.282527 444.263226 318.193548 
C 444.263226 325.10457 447.009004 331.733465 451.895834 336.620295 
C 456.782664 341.507125 463.411559 344.252903 470.322581 344.252903 
z
" clip-path="url(#p9b8601eac4)" style="fill: #add8e6; stroke: #000000; stroke-width: 2; stroke-linejoin: miter"/>
   </g>
   <g id="patch_11">
    <path d="M 470.322581 431.117419 
C 477.233602 431.117419 483.862497 428.371641 488.749327 423.484811 
C 493.636157 418.597981 496.381935 411.969086 496.381935 405.058065 
C 496.381935 398.147043 493.636157 391.518148 488.749327 386.631318 
C 483.862497 381.744488 477.233602 378.99871 470.322581 378.99871 
C 463.411559 378.99871 456.782664 381.744488 451.895834 386.631318 
C 447.009004 391.518148 444.263226 398.147043 444.263226 405.058065 
C 444.263226 411.969086 447.009004 418.597981 451.895834 423.484811 
C 456.782664 428.371641 463.411559 431.117419 470.322581 431.117419 
z
" clip-path="url(#p9b8601eac4)" style="fill: #add8e6; stroke: #000000; stroke-width: 2; stroke-linejoin: miter"/>
   </g>
   <g id="patch_12">
    <path d="M 470.322581 561.414194 
C 477.233602 561.414194 483.862497 558.668416 488.749327 553.781585 
C 493.636157 548.894755 496.381935 542.26586 496.381935 535.354839 
C 496.381935 528.443817 493.636157 521.814922 488.749327 516.928092 
C 483.862497 512.041262 477.233602 509.295484 470.322581 509.295484 
C 463.411559 509.295484 456.782664 512.041262 451.895834 516.928092 
C 447.009004 521.814922 444.263226 528.443817 444.263226 535.354839 
C 444.263226 542.26586 447.009004 548.894755 451.895834 553.781585 
C 456.782664 558.668416 463.411559 561.414194 470.322581 561.414194 
z
" clip-path="url(#p9b8601eac4)" style="fill: #add8e6; stroke: #000000; stroke-width: 2; stroke-linejoin: miter"/>
   </g>
   <g id="patch_13">
    <path d="M 470.322581 691.710968 
C 477.233602 691.710968 483.862497 688.96519 488.749327 684.078359 
C 493.636157 679.191529 496.381935 672.562635 496.381935 665.651613 
C 496.381935 658.740591 493.636157 652.111697 488.749327 647.224866 
C 483.862497 642.338036 477.233602 639.592258 470.322581 639.592258 
C 463.411559 639.592258 456.782664 642.338036 451.895834 647.224866 
C 447.009004 652.111697 444.263226 658.740591 444.263226 665.651613 
C 444.263226 672.562635 447.009004 679.191529 451.895834 684.078359 
C 456.782664 688.96519 463.411559 691.710968 470.322581 691.710968 
z
" clip-path="url(#p9b8601eac4)" style="fill: #add8e6; stroke: #000000; stroke-width: 2; stroke-linejoin: miter"/>
   </g>
   <g id="patch_14">
    <path d="M 600.619355 170.523871 
C 607.530377 170.523871 614.159271 167.778093 619.046101 162.891263 
C 623.932932 158.004432 626.67871 151.375538 626.67871 144.464516 
C 626.67871 137.553494 623.932932 130.9246 619.046101 126.03777 
C 614.159271 121.150939 607.530377 118.405161 600.619355 118.405161 
C 593.708333 118.405161 587.079439 121.150939 582.192608 126.03777 
C 577.305778 130.9246 574.56 137.553494 574.56 144.464516 
C 574.56 151.375538 577.305778 158.004432 582.192608 162.891263 
C 587.079439 167.778093 593.708333 170.523871 600.619355 170.523871 
z
" clip-path="url(#p9b8601eac4)" style="fill: #add8e6; stroke: #000000; stroke-width: 2; stroke-linejoin: miter"/>
   </g>
   <g id="patch_15">
    <path d="M 600.619355 344.252903 
C 607.530377 344.252903 614.159271 341.507125 619.046101 336.620295 
C 623.932932 331.733465 626.67871 325.10457 626.67871 318.193548 
C 626.67871 311.282527 623.932932 304.653632 619.046101 299.766802 
C 614.159271 294.879972 607.530377 292.134194 600.619355 292.134194 
C 593.708333 292.134194 587.079439 294.879972 582.192608 299.766802 
C 577.305778 304.653632 574.56 311.282527 574.56 318.193548 
C 574.56 325.10457 577.305778 331.733465 582.192608 336.620295 
C 587.079439 341.507125 593.708333 344.252903 600.619355 344.252903 
z
" clip-path="url(#p9b8601eac4)" style="fill: #add8e6; stroke: #000000; stroke-width: 2; stroke-linejoin: miter"/>
   </g>
   <g id="patch_16">
    <path d="M 600.619355 431.117419 
C 607.530377 431.117419 614.159271 428.371641 619.046101 423.484811 
C 623.932932 418.597981 626.67871 411.969086 626.67871 405.058065 
C 626.67871 398.147043 623.932932 391.518148 619.046101 386.631318 
C 614.159271 381.744488 607.530377 378.99871 600.619355 378.99871 
C 593.708333 378.99871 587.079439 381.744488 582.192608 386.631318 
C 577.305778 391.518148 574.56 398.147043 574.56 405.058065 
C 574.56 411.969086 577.305778 418.597981 582.192608 423.484811 
C 587.079439 428.371641 593.708333 431.117419 600.619355 431.117419 
z
" clip-path="url(#p9b8601eac4)" style="fill: #add8e6; stroke: #000000; stroke-width: 2; stroke-linejoin: miter"/>
   </g>
   <g id="patch_17">
    <path d="M 600.619355 561.414194 
C 607.530377 561.414194 614.159271 558.668416 619.046101 553.781585 
C 623.932932 548.894755 626.67871 542.26586 626.67871 535.354839 
C 626.67871 528.443817 623.932932 521.814922 619.046101 516.928092 
C 614.159271 512.041262 607.530377 509.295484 600.619355 509.295484 
C 593.708333 509.295484 587.079439 512.041262 582.192608 516.928092 
C 577.305778 521.814922 574.56 528.443817 574.56 535.354839 
C 574.56 542.26586 577.305778 548.894755 582.192608 553.781585 
C 587.079439 558.668416 593.708333 561.414194 600.619355 561.414194 
z
" clip-path="url(#p9b8601eac4)" style="fill: #add8e6; stroke: #000000; stroke-width: 2; stroke-linejoin: miter"/>
   </g>
   <g id="patch_18">
    <path d="M 600.619355 691.710968 
C 607.530377 691.710968 614.159271 688.96519 619.046101 684.078359 
C 623.932932 679.191529 626.67871 672.562635 626.67871 665.651613 
C 626.67871 658.740591 623.932932 652.111697 619.046101 647.224866 
C 614.159271 642.338036 607.530377 639.592258 600.619355 639.592258 
C 593.708333 639.592258 587.079439 642.338036 582.192608 647.224866 
C 577.305778 652.111697 574.56 658.740591 574.56 665.651613 
C 574.56 672.562635 577.305778 679.191529 582.192608 684.078359 
C 587.079439 688.96519 593.708333 691.710968 600.619355 691.710968 
z
" clip-path="url(#p9b8601eac4)" style="fill: #add8e6; stroke: #000000; stroke-width: 2; stroke-linejoin: miter"/>
   </g>
   <g id="patch_19">
    <path d="M 730.916129 170.523871 
C 737.827151 170.523871 744.456045 167.778093 749.342876 162.891263 
C 754.229706 158.004432 756.975484 151.375538 756.975484 144.464516 
C 756.975484 137.553494 754.229706 130.9246 749.342876 126.03777 
C 744.456045 121.150939 737.827151 118.405161 730.916129 118.405161 
C 724.005107 118.405161 717.376213 121.150939 712.489383 126.03777 
C 707.602552 130.9246 704.856774 137.553494 704.856774 144.464516 
C 704.856774 151.375538 707.602552 158.004432 712.489383 162.891263 
C 717.376213 167.778093 724.005107 170.523871 730.916129 170.523871 
z
" clip-path="url(#p9b8601eac4)" style="fill: #add8e6; stroke: #000000; stroke-width: 2; stroke-linejoin: miter"/>
   </g>
   <g id="patch_20">
    <path d="M 730.916129 431.117419 
C 737.827151 431.117419 744.456045 428.371641 749.342876 423.484811 
C 754.229706 418.597981 756.975484 411.969086 756.975484 405.058065 
C 756.975484 398.147043 754.229706 391.518148 749.342876 386.631318 
C 744.456045 381.744488 737.827151 378.99871 730.916129 378.99871 
C 724.005107 378.99871 717.376213 381.744488 712.489383 386.631318 
C 707.602552 391.518148 704.856774 398.147043 704.856774 405.058065 
C 704.856774 411.969086 707.602552 418.597981 712.489383 423.484811 
C 717.376213 428.371641 724.005107 431.117419 730.916129 431.117419 
z
" clip-path="url(#p9b8601eac4)" style="fill: #add8e6; stroke: #000000; stroke-width: 2; stroke-linejoin: miter"/>
   </g>
   <g id="patch_21">
    <path d="M 730.916129 561.414194 
C 737.827151 561.414194 744.456045 558.668416 749.342876 553.781585 
C 754.229706 548.894755 756.975484 542.26586 756.975484 535.354839 
C 756.975484 528.443817 754.229706 521.814922 749.342876 516.928092 
C 744.456045 512.041262 737.827151 509.295484 730.916129 509.295484 
C 724.005107 509.295484 717.376213 512.041262 712.489383 516.928092 
C 707.602552 521.814922 704.856774 528.443817 704.856774 535.354839 
C 704.856774 542.26586 707.602552 548.894755 712.489383 553.781585 
C 717.376213 558.668416 724.005107 561.414194 730.916129 561.414194 
z
" clip-path="url(#p9b8601eac4)" style="fill: #add8e6; stroke: #000000; stroke-width: 2; stroke-linejoin: miter"/>
   </g>
   <g id="patch_22">
    <path d="M 730.916129 691.710968 
C 737.827151 691.710968 744.456045 688.96519 749.342876 684.078359 
C 754.229706 679.191529 756.975484 672.562635 756.975484 665.651613 
C 756.975484 658.740591 754.229706 652.111697 749.342876 647.224866 
C 744.456045 642.338036 737.827151 639.592258 730.916129 639.592258 
C 724.005107 639.592258 717.376213 642.338036 712.489383 647.224866 
C 707.602552 652.111697 704.856774 658.740591 704.856774 665.651613 
C 704.856774 672.562635 707.602552 679.191529 712.489383 684.078359 
C 717.376213 688.96519 724.005107 691.710968 730.916129 691.710968 
z
" clip-path="url(#p9b8601eac4)" style="fill: #add8e6; stroke: #000000; stroke-width: 2; stroke-linejoin: miter"/>
   </g>
   <g id="patch_23">
    <path d="M 861.212903 170.523871 
C 868.123925 170.523871 874.752819 167.778093 879.63965 162.891263 
C 884.52648 158.004432 887.272258 151.375538 887.272258 144.464516 
C 887.272258 137.553494 884.52648 130.9246 879.63965 126.03777 
C 874.752819 121.150939 868.123925 118.405161 861.212903 118.405161 
C 854.301882 118.405161 847.672987 121.150939 842.786157 126.03777 
C 837.899326 130.9246 835.153548 137.553494 835.153548 144.464516 
C 835.153548 151.375538 837.899326 158.004432 842.786157 162.891263 
C 847.672987 167.778093 854.301882 170.523871 861.212903 170.523871 
z
" clip-path="url(#p9b8601eac4)" style="fill: #add8e6; stroke: #000000; stroke-width: 2; stroke-linejoin: miter"/>
   </g>
   <g id="patch_24">
    <path d="M 861.212903 431.117419 
C 868.123925 431.117419 874.752819 428.371641 879.63965 423.484811 
C 884.52648 418.597981 887.272258 411.969086 887.272258 405.058065 
C 887.272258 398.147043 884.52648 391.518148 879.63965 386.631318 
C 874.752819 381.744488 868.123925 378.99871 861.212903 378.99871 
C 854.301882 378.99871 847.672987 381.744488 842.786157 386.631318 
C 837.899326 391.518148 835.153548 398.147043 835.153548 405.058065 
C 835.153548 411.969086 837.899326 418.597981 842.786157 423.484811 
C 847.672987 428.371641 854.301882 431.117419 861.212903 431.117419 
z
" clip-path="url(#p9b8601eac4)" style="fill: #add8e6; stroke: #000000; stroke-width: 2; stroke-linejoin: miter"/>
   </g>
   <g id="patch_25">
    <path d="M 861.212903 561.414194 
C 868.123925 561.414194 874.752819 558.668416 879.63965 553.781585 
C 884.52648 548.894755 887.272258 542.26586 887.272258 535.354839 
C 887.272258 528.443817 884.52648 521.814922 879.63965 516.928092 
C 874.752819 512.041262 868.123925 509.295484 861.212903 509.295484 
C 854.301882 509.295484 847.672987 512.041262 842.786157 516.928092 
C 837.899326 521.814922 835.153548 528.443817 835.153548 535.354839 
C 835.153548 542.26586 837.899326 548.894755 842.786157 553.781585 
C 847.672987 558.668416 854.301882 561.414194 861.212903 561.414194 
z
" clip-path="url(#p9b8601eac4)" style="fill: #add8e6; stroke: #000000; stroke-width: 2; stroke-linejoin: miter"/>
   </g>
   <g id="patch_26">
    <path d="M 79.432258 448.490323 
L 513.754839 448.490323 
L 513.754839 101.032258 
L 79.432258 101.032258 
L 79.432258 448.490323 
z
" clip-path="url(#p9b8601eac4)" style="fill: none; stroke: #000000; stroke-width: 2; stroke-linejoin: miter"/>
   </g>
   <g id="patch_27">
    <path d="M 557.187097 448.490323 
L 644.051613 448.490323 
L 644.051613 101.032258 
L 557.187097 101.032258 
L 557.187097 448.490323 
z
" clip-path="url(#p9b8601eac4)" style="fill: none; stroke: #000000; stroke-width: 2; stroke-linejoin: miter"/>
   </g>
   <g id="patch_28">
    <path d="M 687.483871 448.490323 
L 774.348387 448.490323 
L 774.348387 101.032258 
L 687.483871 101.032258 
L 687.483871 448.490323 
z
" clip-path="url(#p9b8601eac4)" style="fill: none; stroke: #000000; stroke-width: 2; stroke-linejoin: miter"/>
   </g>
   <g id="patch_29">
    <path d="M 79.432258 578.787097 
L 513.754839 578.787097 
L 513.754839 491.922581 
L 79.432258 491.922581 
L 79.432258 578.787097 
z
" clip-path="url(#p9b8601eac4)" style="fill: none; stroke: #000000; stroke-width: 2; stroke-linejoin: miter"/>
   </g>
   <g id="patch_30">
    <path d="M 557.187097 578.787097 
L 644.051613 578.787097 
L 644.051613 491.922581 
L 557.187097 491.922581 
L 557.187097 578.787097 
z
" clip-path="url(#p9b8601eac4)" style="fill: none; stroke: #000000; stroke-width: 2; stroke-linejoin: miter"/>
   </g>
   <g id="patch_31">
    <path d="M 687.483871 578.787097 
L 774.348387 578.787097 
L 774.348387 491.922581 
L 687.483871 491.922581 
L 687.483871 578.787097 
z
" clip-path="url(#p9b8601eac4)" style="fill: none; stroke: #000000; stroke-width: 2; stroke-linejoin: miter"/>
   </g>
   <g id="patch_32">
    <path d="M 817.780645 578.787097 
L 904.645161 578.787097 
L 904.645161 101.032258 
L 817.780645 101.032258 
L 817.780645 578.787097 
z
" clip-path="url(#p9b8601eac4)" style="fill: none; stroke: #000000; stroke-width: 2; stroke-linejoin: miter"/>
   </g>
   <g id="patch_33">
    <path d="M 79.432258 709.083871 
L 774.348387 709.083871 
L 774.348387 622.219355 
L 79.432258 622.219355 
L 79.432258 709.083871 
z
" clip-path="url(#p9b8601eac4)" style="fill: none; stroke: #000000; stroke-width: 2; stroke-linejoin: miter"/>
   </g>
   <g id="line2d_1">
    <path d="M 148.923871 144.464516 
L 357.39871 144.464516 
" clip-path="url(#p9b8601eac4)" style="fill: none; stroke-dasharray: 1.5,2.475; stroke-dashoffset: 0; stroke: #000000; stroke-width: 1.5"/>
    <defs>
     <path id="m6d120a51b5" d="M 0 1.5 
C 0.397805 1.5 0.77937 1.341951 1.06066 1.06066 
C 1.341951 0.77937 1.5 0.397805 1.5 0 
C 1.5 -0.397805 1.341951 -0.77937 1.06066 -1.06066 
C 0.77937 -1.341951 0.397805 -1.5 0 -1.5 
C -0.397805 -1.5 -0.77937 -1.341951 -1.06066 -1.06066 
C -1.341951 -0.77937 -1.5 -0.397805 -1.5 0 
C -1.5 0.397805 -1.341951 0.77937 -1.06066 1.06066 
C -0.77937 1.341951 -0.397805 1.5 0 1.5 
z
" style="stroke: #000000"/>
    </defs>
    <g clip-path="url(#p9b8601eac4)">
     <use xlink:href="#m6d120a51b5" x="148.923871" y="144.464516" style="stroke: #000000"/>
     <use xlink:href="#m6d120a51b5" x="357.39871" y="144.464516" style="stroke: #000000"/>
    </g>
   </g>
   <g id="line2d_2">
    <path d="M 409.517419 144.464516 
L 444.263226 144.464516 
" clip-path="url(#p9b8601eac4)" style="fill: none; stroke-dasharray: 1.5,2.475; stroke-dashoffset: 0; stroke: #000000; stroke-width: 1.5"/>
    <g clip-path="url(#p9b8601eac4)">
     <use xlink:href="#m6d120a51b5" x="409.517419" y="144.464516" style="stroke: #000000"/>
     <use xlink:href="#m6d120a51b5" x="444.263226" y="144.464516" style="stroke: #000000"/>
    </g>
   </g>
   <g id="line2d_3">
    <path d="M 470.322581 170.523871 
L 470.322581 292.134194 
" clip-path="url(#p9b8601eac4)" style="fill: none; stroke-dasharray: 1.5,2.475; stroke-dashoffset: 0; stroke: #000000; stroke-width: 1.5"/>
    <g clip-path="url(#p9b8601eac4)">
     <use xlink:href="#m6d120a51b5" x="470.322581" y="170.523871" style="stroke: #000000"/>
     <use xlink:href="#m6d120a51b5" x="470.322581" y="292.134194" style="stroke: #000000"/>
    </g>
   </g>
   <g id="line2d_4">
    <path d="M 470.322581 344.252903 
L 470.322581 378.99871 
" clip-path="url(#p9b8601eac4)" style="fill: none; stroke-dasharray: 1.5,2.475; stroke-dashoffset: 0; stroke: #000000; stroke-width: 1.5"/>
    <g clip-path="url(#p9b8601eac4)">
     <use xlink:href="#m6d120a51b5" x="470.322581" y="344.252903" style="stroke: #000000"/>
     <use xlink:href="#m6d120a51b5" x="470.322581" y="378.99871" style="stroke: #000000"/>
    </g>
   </g>
   <g id="line2d_5">
    <path d="M 122.864516 170.523871 
L 122.864516 292.134194 
" clip-path="url(#p9b8601eac4)" style="fill: none; stroke-dasharray: 1.5,2.475; stroke-dashoffset: 0; stroke: #000000; stroke-width: 1.5"/>
    <g clip-path="url(#p9b8601eac4)">
     <use xlink:href="#m6d120a51b5" x="122.864516" y="170.523871" style="stroke: #000000"/>
     <use xlink:href="#m6d120a51b5" x="122.864516" y="292.134194" style="stroke: #000000"/>
    </g>
   </g>
   <g id="line2d_6">
    <path d="M 122.864516 344.252903 
L 122.864516 378.99871 
" clip-path="url(#p9b8601eac4)" style="fill: none; stroke-dasharray: 1.5,2.475; stroke-dashoffset: 0; stroke: #000000; stroke-width: 1.5"/>
    <g clip-path="url(#p9b8601eac4)">
     <use xlink:href="#m6d120a51b5" x="122.864516" y="344.252903" style="stroke: #000000"/>
     <use xlink:href="#m6d120a51b5" x="122.864516" y="378.99871" style="stroke: #000000"/>
    </g>
   </g>
   <g id="line2d_7">
    <path d="M 148.923871 405.058065 
L 357.39871 405.058065 
" clip-path="url(#p9b8601eac4)" style="fill: none; stroke-dasharray: 1.5,2.475; stroke-dashoffset: 0; stroke: #000000; stroke-width: 1.5"/>
    <g clip-path="url(#p9b8601eac4)">
     <use xlink:href="#m6d120a51b5" x="148.923871" y="405.058065" style="stroke: #000000"/>
     <use xlink:href="#m6d120a51b5" x="357.39871" y="405.058065" style="stroke: #000000"/>
    </g>
   </g>
   <g id="line2d_8">
    <path d="M 409.517419 405.058065 
L 444.263226 405.058065 
" clip-path="url(#p9b8601eac4)" style="fill: none; stroke-dasharray: 1.5,2.475; stroke-dashoffset: 0; stroke: #000000; stroke-width: 1.5"/>
    <g clip-path="url(#p9b8601eac4)">
     <use xlink:href="#m6d120a51b5" x="409.517419" y="405.058065" style="stroke: #000000"/>
     <use xlink:href="#m6d120a51b5" x="444.263226" y="405.058065" style="stroke: #000000"/>
    </g>
   </g>
   <g id="line2d_9">
    <path d="M 143.712 160.100129 
L 449.475097 389.422452 
" clip-path="url(#p9b8601eac4)" style="fill: none; stroke-dasharray: 1.5,2.475; stroke-dashoffset: 0; stroke: #000000; stroke-width: 1.5"/>
    <g clip-path="url(#p9b8601eac4)">
     <use xlink:href="#m6d120a51b5" x="143.712" y="160.100129" style="stroke: #000000"/>
     <use xlink:href="#m6d120a51b5" x="449.475097" y="389.422452" style="stroke: #000000"/>
    </g>
   </g>
   <g id="line2d_10">
    <path d="M 148.923871 535.354839 
L 444.263226 535.354839 
" clip-path="url(#p9b8601eac4)" style="fill: none; stroke-dasharray: 1.5,2.475; stroke-dashoffset: 0; stroke: #000000; stroke-width: 1.5"/>
    <g clip-path="url(#p9b8601eac4)">
     <use xlink:href="#m6d120a51b5" x="148.923871" y="535.354839" style="stroke: #000000"/>
     <use xlink:href="#m6d120a51b5" x="444.263226" y="535.354839" style="stroke: #000000"/>
    </g>
   </g>
   <g id="line2d_11">
    <path d="M 600.619355 170.523871 
L 600.619355 292.134194 
" clip-path="url(#p9b8601eac4)" style="fill: none; stroke-dasharray: 1.5,2.475; stroke-dashoffset: 0; stroke: #000000; stroke-width: 1.5"/>
    <g clip-path="url(#p9b8601eac4)">
     <use xlink:href="#m6d120a51b5" x="600.619355" y="170.523871" style="stroke: #000000"/>
     <use xlink:href="#m6d120a51b5" x="600.619355" y="292.134194" style="stroke: #000000"/>
    </g>
   </g>
   <g id="line2d_12">
    <path d="M 600.619355 344.252903 
L 600.619355 378.99871 
" clip-path="url(#p9b8601eac4)" style="fill: none; stroke-dasharray: 1.5,2.475; stroke-dashoffset: 0; stroke: #000000; stroke-width: 1.5"/>
    <g clip-path="url(#p9b8601eac4)">
     <use xlink:href="#m6d120a51b5" x="600.619355" y="344.252903" style="stroke: #000000"/>
     <use xlink:href="#m6d120a51b5" x="600.619355" y="378.99871" style="stroke: #000000"/>
    </g>
   </g>
   <g id="line2d_13">
    <path d="M 730.916129 170.523871 
L 730.916129 378.99871 
" clip-path="url(#p9b8601eac4)" style="fill: none; stroke-dasharray: 1.5,2.475; stroke-dashoffset: 0; stroke: #000000; stroke-width: 1.5"/>
    <g clip-path="url(#p9b8601eac4)">
     <use xlink:href="#m6d120a51b5" x="730.916129" y="170.523871" style="stroke: #000000"/>
     <use xlink:href="#m6d120a51b5" x="730.916129" y="378.99871" style="stroke: #000000"/>
    </g>
   </g>
   <g id="line2d_14">
    <path d="M 122.864516 431.117419 
L 122.864516 509.295484 
" clip-path="url(#p9b8601eac4)" style="fill: none; stroke-dasharray: 1.5,2.475; stroke-dashoffset: 0; stroke: #000000; stroke-width: 1.5"/>
    <g clip-path="url(#p9b8601eac4)">
     <use xlink:href="#m6d120a51b5" x="122.864516" y="431.117419" style="stroke: #000000"/>
     <use xlink:href="#m6d120a51b5" x="122.864516" y="509.295484" style="stroke: #000000"/>
    </g>
   </g>
   <g id="line2d_15">
    <path d="M 122.864516 561.414194 
L 122.864516 639.592258 
" clip-path="url(#p9b8601eac4)" style="fill: none; stroke-dasharray: 1.5,2.475; stroke-dashoffset: 0; stroke: #000000; stroke-width: 1.5"/>
    <g clip-path="url(#p9b8601eac4)">
     <use xlink:href="#m6d120a51b5" x="122.864516" y="561.414194" style="stroke: #000000"/>
     <use xlink:href="#m6d120a51b5" x="122.864516" y="639.592258" style="stroke: #000000"/>
    </g>
   </g>
   <g id="line2d_16">
    <path d="M 470.322581 561.414194 
L 470.322581 639.592258 
" clip-path="url(#p9b8601eac4)" style="fill: none; stroke-dasharray: 1.5,2.475; stroke-dashoffset: 0; stroke: #000000; stroke-width: 1.5"/>
    <g clip-path="url(#p9b8601eac4)">
     <use xlink:href="#m6d120a51b5" x="470.322581" y="561.414194" style="stroke: #000000"/>
     <use xlink:href="#m6d120a51b5" x="470.322581" y="639.592258" style="stroke: #000000"/>
    </g>
   </g>
   <g id="line2d_17">
    <path d="M 496.381935 535.354839 
L 574.56 535.354839 
" clip-path="url(#p9b8601eac4)" style="fill: none; stroke-dasharray: 1.5,2.475; stroke-dashoffset: 0; stroke: #000000; stroke-width: 1.5"/>
    <g clip-path="url(#p9b8601eac4)">
     <use xlink:href="#m6d120a51b5" x="496.381935" y="535.354839" style="stroke: #000000"/>
     <use xlink:href="#m6d120a51b5" x="574.56" y="535.354839" style="stroke: #000000"/>
    </g>
   </g>
   <g id="line2d_18">
    <path d="M 626.67871 535.354839 
L 704.856774 535.354839 
" clip-path="url(#p9b8601eac4)" style="fill: none; stroke-dasharray: 1.5,2.475; stroke-dashoffset: 0; stroke: #000000; stroke-width: 1.5"/>
    <g clip-path="url(#p9b8601eac4)">
     <use xlink:href="#m6d120a51b5" x="626.67871" y="535.354839" style="stroke: #000000"/>
     <use xlink:href="#m6d120a51b5" x="704.856774" y="535.354839" style="stroke: #000000"/>
    </g>
   </g>
   <g id="line2d_19">
    <path d="M 600.619355 561.414194 
L 600.619355 639.592258 
" clip-path="url(#p9b8601eac4)" style="fill: none; stroke-dasharray: 1.5,2.475; stroke-dashoffset: 0; stroke: #000000; stroke-width: 1.5"/>
    <g clip-path="url(#p9b8601eac4)">
     <use xlink:href="#m6d120a51b5" x="600.619355" y="561.414194" style="stroke: #000000"/>
     <use xlink:href="#m6d120a51b5" x="600.619355" y="639.592258" style="stroke: #000000"/>
    </g>
   </g>
   <g id="line2d_20">
    <path d="M 756.975484 535.354839 
L 835.153548 535.354839 
" clip-path="url(#p9b8601eac4)" style="fill: none; stroke-dasharray: 1.5,2.475; stroke-dashoffset: 0; stroke: #000000; stroke-width: 1.5"/>
    <g clip-path="url(#p9b8601eac4)">
     <use xlink:href="#m6d120a51b5" x="756.975484" y="535.354839" style="stroke: #000000"/>
     <use xlink:href="#m6d120a51b5" x="835.153548" y="535.354839" style="stroke: #000000"/>
    </g>
   </g>
   <g id="line2d_21">
    <path d="M 730.916129 561.414194 
L 730.916129 639.592258 
" clip-path="url(#p9b8601eac4)" style="fill: none; stroke-dasharray: 1.5,2.475; stroke-dashoffset: 0; stroke: #000000; stroke-width: 1.5"/>
    <g clip-path="url(#p9b8601eac4)">
     <use xlink:href="#m6d120a51b5" x="730.916129" y="561.414194" style="stroke: #000000"/>
     <use xlink:href="#m6d120a51b5" x="730.916129" y="639.592258" style="stroke: #000000"/>
    </g>
   </g>
   <g id="line2d_22">
    <path d="M 756.975484 144.464516 
L 835.153548 144.464516 
" clip-path="url(#p9b8601eac4)" style="fill: none; stroke-dasharray: 1.5,2.475; stroke-dashoffset: 0; stroke: #000000; stroke-width: 1.5"/>
    <g clip-path="url(#p9b8601eac4)">
     <use xlink:href="#m6d120a51b5" x="756.975484" y="144.464516" style="stroke: #000000"/>
     <use xlink:href="#m6d120a51b5" x="835.153548" y="144.464516" style="stroke: #000000"/>
    </g>
   </g>
   <g id="line2d_23">
    <path d="M 756.975484 405.058065 
L 835.153548 405.058065 
" clip-path="url(#p9b8601eac4)" style="fill: none; stroke-dasharray: 1.5,2.475; stroke-dashoffset: 0; stroke: #000000; stroke-width: 1.5"/>
    <g clip-path="url(#p9b8601eac4)">
     <use xlink:href="#m6d120a51b5" x="756.975484" y="405.058065" style="stroke: #000000"/>
     <use xlink:href="#m6d120a51b5" x="835.153548" y="405.058065" style="stroke: #000000"/>
    </g>
   </g>
   <g id="line2d_24">
    <path d="M 730.916129 431.117419 
L 730.916129 509.295484 
" clip-path="url(#p9b8601eac4)" style="fill: none; stroke-dasharray: 1.5,2.475; stroke-dashoffset: 0; stroke: #000000; stroke-width: 1.5"/>
    <g clip-path="url(#p9b8601eac4)">
     <use xlink:href="#m6d120a51b5" x="730.916129" y="431.117419" style="stroke: #000000"/>
     <use xlink:href="#m6d120a51b5" x="730.916129" y="509.295484" style="stroke: #000000"/>
    </g>
   </g>
   <g id="line2d_25">
    <path d="M 488.749327 423.484811 
L 582.192608 516.928092 
" clip-path="url(#p9b8601eac4)" style="fill: none; stroke-dasharray: 1.5,2.475; stroke-dashoffset: 0; stroke: #000000; stroke-width: 1.5"/>
    <g clip-path="url(#p9b8601eac4)">
     <use xlink:href="#m6d120a51b5" x="488.749327" y="423.484811" style="stroke: #000000"/>
     <use xlink:href="#m6d120a51b5" x="582.192608" y="516.928092" style="stroke: #000000"/>
    </g>
   </g>
   <g id="line2d_26">
    <path d="M 492.005275 332.648678 
L 578.936661 390.602935 
" clip-path="url(#p9b8601eac4)" style="fill: none; stroke-dasharray: 1.5,2.475; stroke-dashoffset: 0; stroke: #000000; stroke-width: 1.5"/>
    <g clip-path="url(#p9b8601eac4)">
     <use xlink:href="#m6d120a51b5" x="492.005275" y="332.648678" style="stroke: #000000"/>
     <use xlink:href="#m6d120a51b5" x="578.936661" y="390.602935" style="stroke: #000000"/>
    </g>
   </g>
   <g id="line2d_27">
    <path d="M 397.913194 426.740758 
L 455.867451 513.672145 
" clip-path="url(#p9b8601eac4)" style="fill: none; stroke-dasharray: 1.5,2.475; stroke-dashoffset: 0; stroke: #000000; stroke-width: 1.5"/>
    <g clip-path="url(#p9b8601eac4)">
     <use xlink:href="#m6d120a51b5" x="397.913194" y="426.740758" style="stroke: #000000"/>
     <use xlink:href="#m6d120a51b5" x="455.867451" y="513.672145" style="stroke: #000000"/>
    </g>
   </g>
   <g id="line2d_28">
    <path d="M 622.302049 332.648678 
L 709.233435 390.602935 
" clip-path="url(#p9b8601eac4)" style="fill: none; stroke-dasharray: 1.5,2.475; stroke-dashoffset: 0; stroke: #000000; stroke-width: 1.5"/>
    <g clip-path="url(#p9b8601eac4)">
     <use xlink:href="#m6d120a51b5" x="622.302049" y="332.648678" style="stroke: #000000"/>
     <use xlink:href="#m6d120a51b5" x="709.233435" y="390.602935" style="stroke: #000000"/>
    </g>
   </g>
   <g id="line2d_29">
    <path d="M 619.046101 423.484811 
L 712.489383 516.928092 
" clip-path="url(#p9b8601eac4)" style="fill: none; stroke-dasharray: 1.5,2.475; stroke-dashoffset: 0; stroke: #000000; stroke-width: 1.5"/>
    <g clip-path="url(#p9b8601eac4)">
     <use xlink:href="#m6d120a51b5" x="619.046101" y="423.484811" style="stroke: #000000"/>
     <use xlink:href="#m6d120a51b5" x="712.489383" y="516.928092" style="stroke: #000000"/>
    </g>
   </g>
   <g id="line2d_30">
    <path d="M 407.587097 131.595699 
L 409.780645 130.585337 
L 411.974194 129.601564 
L 414.167742 128.644379 
L 416.36129 127.713783 
L 418.554839 126.809775 
L 420.748387 125.932356 
L 422.941935 125.081525 
L 425.135484 124.257283 
L 427.329032 123.459629 
L 429.522581 122.688563 
L 431.716129 121.944086 
L 433.909677 121.226197 
L 436.103226 120.534897 
L 438.296774 119.870186 
L 440.490323 119.232063 
L 442.683871 118.620528 
L 444.877419 118.035582 
L 447.070968 117.477224 
L 449.264516 116.945455 
L 451.458065 116.440274 
L 453.651613 115.961681 
L 455.845161 115.509677 
L 458.03871 115.084262 
L 460.232258 114.685435 
L 462.425806 114.313196 
L 464.619355 113.967546 
L 466.812903 113.648485 
L 469.006452 113.356012 
L 471.2 113.090127 
L 473.393548 112.850831 
L 475.587097 112.638123 
L 477.780645 112.452004 
L 479.974194 112.292473 
L 482.167742 112.159531 
L 484.36129 112.053177 
L 486.554839 111.973412 
L 488.748387 111.920235 
L 490.941935 111.893646 
L 493.135484 111.893646 
L 495.329032 111.920235 
L 497.522581 111.973412 
L 499.716129 112.053177 
L 501.909677 112.159531 
L 504.103226 112.292473 
L 506.296774 112.452004 
L 508.490323 112.638123 
L 510.683871 112.850831 
L 512.877419 113.090127 
L 515.070968 113.356012 
L 517.264516 113.648485 
L 519.458065 113.967546 
L 521.651613 114.313196 
L 523.845161 114.685435 
L 526.03871 115.084262 
L 528.232258 115.509677 
L 530.425806 115.961681 
L 532.619355 116.440274 
L 534.812903 116.945455 
L 537.006452 117.477224 
L 539.2 118.035582 
L 541.393548 118.620528 
L 543.587097 119.232063 
L 545.780645 119.870186 
L 547.974194 120.534897 
L 550.167742 121.226197 
L 552.36129 121.944086 
L 554.554839 122.688563 
L 556.748387 123.459629 
L 558.941935 124.257283 
L 561.135484 125.081525 
L 563.329032 125.932356 
L 565.522581 126.809775 
L 567.716129 127.713783 
L 569.909677 128.644379 
L 572.103226 129.601564 
L 574.296774 130.585337 
L 576.490323 131.595699 
" clip-path="url(#p9b8601eac4)" style="fill: none; stroke-dasharray: 1.5,2.475; stroke-dashoffset: 0; stroke: #000000; stroke-width: 1.5"/>
   </g>
   <g id="line2d_31">
    <path d="M 494.012903 131.542522 
L 496.645161 130.266276 
L 499.277419 129.021935 
L 501.909677 127.809501 
L 504.541935 126.628974 
L 507.174194 125.480352 
L 509.806452 124.363636 
L 512.43871 123.278827 
L 515.070968 122.225924 
L 517.703226 121.204927 
L 520.335484 120.215836 
L 522.967742 119.258651 
L 525.6 118.333372 
L 528.232258 117.44 
L 530.864516 116.578534 
L 533.496774 115.748974 
L 536.129032 114.95132 
L 538.76129 114.185572 
L 541.393548 113.45173 
L 544.025806 112.749795 
L 546.658065 112.079765 
L 549.290323 111.441642 
L 551.922581 110.835425 
L 554.554839 110.261114 
L 557.187097 109.71871 
L 559.819355 109.208211 
L 562.451613 108.729619 
L 565.083871 108.282933 
L 567.716129 107.868152 
L 570.348387 107.485279 
L 572.980645 107.134311 
L 575.612903 106.815249 
L 578.245161 106.528094 
L 580.877419 106.272845 
L 583.509677 106.049501 
L 586.141935 105.858065 
L 588.774194 105.698534 
L 591.406452 105.570909 
L 594.03871 105.475191 
L 596.670968 105.411378 
L 599.303226 105.379472 
L 601.935484 105.379472 
L 604.567742 105.411378 
L 607.2 105.475191 
L 609.832258 105.570909 
L 612.464516 105.698534 
L 615.096774 105.858065 
L 617.729032 106.049501 
L 620.36129 106.272845 
L 622.993548 106.528094 
L 625.625806 106.815249 
L 628.258065 107.134311 
L 630.890323 107.485279 
L 633.522581 107.868152 
L 636.154839 108.282933 
L 638.787097 108.729619 
L 641.419355 109.208211 
L 644.051613 109.71871 
L 646.683871 110.261114 
L 649.316129 110.835425 
L 651.948387 111.441642 
L 654.580645 112.079765 
L 657.212903 112.749795 
L 659.845161 113.45173 
L 662.477419 114.185572 
L 665.109677 114.95132 
L 667.741935 115.748974 
L 670.374194 116.578534 
L 673.006452 117.44 
L 675.63871 118.333372 
L 678.270968 119.258651 
L 680.903226 120.215836 
L 683.535484 121.204927 
L 686.167742 122.225924 
L 688.8 123.278827 
L 691.432258 124.363636 
L 694.064516 125.480352 
L 696.696774 126.628974 
L 699.329032 127.809501 
L 701.96129 129.021935 
L 704.593548 130.266276 
L 707.225806 131.542522 
" clip-path="url(#p9b8601eac4)" style="fill: none; stroke-dasharray: 1.5,2.475; stroke-dashoffset: 0; stroke: #000000; stroke-width: 1.5"/>
   </g>
   <g id="line2d_32">
    <path d="M 407.587097 417.926882 
L 409.780645 418.937243 
L 411.974194 419.921017 
L 414.167742 420.878201 
L 416.36129 421.808798 
L 418.554839 422.712805 
L 420.748387 423.590225 
L 422.941935 424.441056 
L 425.135484 425.265298 
L 427.329032 426.062952 
L 429.522581 426.834018 
L 431.716129 427.578495 
L 433.909677 428.296383 
L 436.103226 428.987683 
L 438.296774 429.652395 
L 440.490323 430.290518 
L 442.683871 430.902053 
L 444.877419 431.486999 
L 447.070968 432.045357 
L 449.264516 432.577126 
L 451.458065 433.082307 
L 453.651613 433.560899 
L 455.845161 434.012903 
L 458.03871 434.438319 
L 460.232258 434.837146 
L 462.425806 435.209384 
L 464.619355 435.555034 
L 466.812903 435.874096 
L 469.006452 436.166569 
L 471.2 436.432454 
L 473.393548 436.67175 
L 475.587097 436.884457 
L 477.780645 437.070577 
L 479.974194 437.230108 
L 482.167742 437.36305 
L 484.36129 437.469404 
L 486.554839 437.549169 
L 488.748387 437.602346 
L 490.941935 437.628935 
L 493.135484 437.628935 
L 495.329032 437.602346 
L 497.522581 437.549169 
L 499.716129 437.469404 
L 501.909677 437.36305 
L 504.103226 437.230108 
L 506.296774 437.070577 
L 508.490323 436.884457 
L 510.683871 436.67175 
L 512.877419 436.432454 
L 515.070968 436.166569 
L 517.264516 435.874096 
L 519.458065 435.555034 
L 521.651613 435.209384 
L 523.845161 434.837146 
L 526.03871 434.438319 
L 528.232258 434.012903 
L 530.425806 433.560899 
L 532.619355 433.082307 
L 534.812903 432.577126 
L 537.006452 432.045357 
L 539.2 431.486999 
L 541.393548 430.902053 
L 543.587097 430.290518 
L 545.780645 429.652395 
L 547.974194 428.987683 
L 550.167742 428.296383 
L 552.36129 427.578495 
L 554.554839 426.834018 
L 556.748387 426.062952 
L 558.941935 425.265298 
L 561.135484 424.441056 
L 563.329032 423.590225 
L 565.522581 422.712805 
L 567.716129 421.808798 
L 569.909677 420.878201 
L 572.103226 419.921017 
L 574.296774 418.937243 
L 576.490323 417.926882 
" clip-path="url(#p9b8601eac4)" style="fill: none; stroke-dasharray: 1.5,2.475; stroke-dashoffset: 0; stroke: #000000; stroke-width: 1.5"/>
   </g>
   <g id="line2d_33">
    <path d="M 494.012903 417.980059 
L 496.645161 419.256305 
L 499.277419 420.500645 
L 501.909677 421.713079 
L 504.541935 422.893607 
L 507.174194 424.042229 
L 509.806452 425.158944 
L 512.43871 426.243754 
L 515.070968 427.296657 
L 517.703226 428.317654 
L 520.335484 429.306745 
L 522.967742 430.26393 
L 525.6 431.189208 
L 528.232258 432.082581 
L 530.864516 432.944047 
L 533.496774 433.773607 
L 536.129032 434.571261 
L 538.76129 435.337009 
L 541.393548 436.07085 
L 544.025806 436.772786 
L 546.658065 437.442815 
L 549.290323 438.080938 
L 551.922581 438.687155 
L 554.554839 439.261466 
L 557.187097 439.803871 
L 559.819355 440.31437 
L 562.451613 440.792962 
L 565.083871 441.239648 
L 567.716129 441.654428 
L 570.348387 442.037302 
L 572.980645 442.38827 
L 575.612903 442.707331 
L 578.245161 442.994487 
L 580.877419 443.249736 
L 583.509677 443.473079 
L 586.141935 443.664516 
L 588.774194 443.824047 
L 591.406452 443.951672 
L 594.03871 444.04739 
L 596.670968 444.111202 
L 599.303226 444.143109 
L 601.935484 444.143109 
L 604.567742 444.111202 
L 607.2 444.04739 
L 609.832258 443.951672 
L 612.464516 443.824047 
L 615.096774 443.664516 
L 617.729032 443.473079 
L 620.36129 443.249736 
L 622.993548 442.994487 
L 625.625806 442.707331 
L 628.258065 442.38827 
L 630.890323 442.037302 
L 633.522581 441.654428 
L 636.154839 441.239648 
L 638.787097 440.792962 
L 641.419355 440.31437 
L 644.051613 439.803871 
L 646.683871 439.261466 
L 649.316129 438.687155 
L 651.948387 438.080938 
L 654.580645 437.442815 
L 657.212903 436.772786 
L 659.845161 436.07085 
L 662.477419 435.337009 
L 665.109677 434.571261 
L 667.741935 433.773607 
L 670.374194 432.944047 
L 673.006452 432.082581 
L 675.63871 431.189208 
L 678.270968 430.26393 
L 680.903226 429.306745 
L 683.535484 428.317654 
L 686.167742 427.296657 
L 688.8 426.243754 
L 691.432258 425.158944 
L 694.064516 424.042229 
L 696.696774 422.893607 
L 699.329032 421.713079 
L 701.96129 420.500645 
L 704.593548 419.256305 
L 707.225806 417.980059 
" clip-path="url(#p9b8601eac4)" style="fill: none; stroke-dasharray: 1.5,2.475; stroke-dashoffset: 0; stroke: #000000; stroke-width: 1.5"/>
   </g>
   <g id="line2d_34">
    <path d="M 483.191398 342.322581 
L 484.20176 344.516129 
L 485.185533 346.709677 
L 486.142717 348.903226 
L 487.073314 351.096774 
L 487.977322 353.290323 
L 488.854741 355.483871 
L 489.705572 357.677419 
L 490.529814 359.870968 
L 491.327468 362.064516 
L 492.098534 364.258065 
L 492.843011 366.451613 
L 493.560899 368.645161 
L 494.252199 370.83871 
L 494.916911 373.032258 
L 495.555034 375.225806 
L 496.166569 377.419355 
L 496.751515 379.612903 
L 497.309873 381.806452 
L 497.841642 384 
L 498.346823 386.193548 
L 498.825415 388.387097 
L 499.277419 390.580645 
L 499.702835 392.774194 
L 500.101662 394.967742 
L 500.4739 397.16129 
L 500.81955 399.354839 
L 501.138612 401.548387 
L 501.431085 403.741935 
L 501.69697 405.935484 
L 501.936266 408.129032 
L 502.148974 410.322581 
L 502.335093 412.516129 
L 502.494624 414.709677 
L 502.627566 416.903226 
L 502.73392 419.096774 
L 502.813685 421.290323 
L 502.866862 423.483871 
L 502.893451 425.677419 
L 502.893451 427.870968 
L 502.866862 430.064516 
L 502.813685 432.258065 
L 502.73392 434.451613 
L 502.627566 436.645161 
L 502.494624 438.83871 
L 502.335093 441.032258 
L 502.148974 443.225806 
L 501.936266 445.419355 
L 501.69697 447.612903 
L 501.431085 449.806452 
L 501.138612 452 
L 500.81955 454.193548 
L 500.4739 456.387097 
L 500.101662 458.580645 
L 499.702835 460.774194 
L 499.277419 462.967742 
L 498.825415 465.16129 
L 498.346823 467.354839 
L 497.841642 469.548387 
L 497.309873 471.741935 
L 496.751515 473.935484 
L 496.166569 476.129032 
L 495.555034 478.322581 
L 494.916911 480.516129 
L 494.252199 482.709677 
L 493.560899 484.903226 
L 492.843011 487.096774 
L 492.098534 489.290323 
L 491.327468 491.483871 
L 490.529814 493.677419 
L 489.705572 495.870968 
L 488.854741 498.064516 
L 487.977322 500.258065 
L 487.073314 502.451613 
L 486.142717 504.645161 
L 485.185533 506.83871 
L 484.20176 509.032258 
L 483.191398 511.225806 
" clip-path="url(#p9b8601eac4)" style="fill: none; stroke-dasharray: 1.5,2.475; stroke-dashoffset: 0; stroke: #000000; stroke-width: 1.5"/>
   </g>
   <g id="line2d_35">
    <path d="M 483.244575 428.748387 
L 484.520821 431.380645 
L 485.765161 434.012903 
L 486.977595 436.645161 
L 488.158123 439.277419 
L 489.306745 441.909677 
L 490.42346 444.541935 
L 491.50827 447.174194 
L 492.561173 449.806452 
L 493.58217 452.43871 
L 494.571261 455.070968 
L 495.528446 457.703226 
L 496.453724 460.335484 
L 497.347097 462.967742 
L 498.208563 465.6 
L 499.038123 468.232258 
L 499.835777 470.864516 
L 500.601525 473.496774 
L 501.335367 476.129032 
L 502.037302 478.76129 
L 502.707331 481.393548 
L 503.345455 484.025806 
L 503.951672 486.658065 
L 504.525982 489.290323 
L 505.068387 491.922581 
L 505.578886 494.554839 
L 506.057478 497.187097 
L 506.504164 499.819355 
L 506.918944 502.451613 
L 507.301818 505.083871 
L 507.652786 507.716129 
L 507.971848 510.348387 
L 508.259003 512.980645 
L 508.514252 515.612903 
L 508.737595 518.245161 
L 508.929032 520.877419 
L 509.088563 523.509677 
L 509.216188 526.141935 
L 509.311906 528.774194 
L 509.375718 531.406452 
L 509.407625 534.03871 
L 509.407625 536.670968 
L 509.375718 539.303226 
L 509.311906 541.935484 
L 509.216188 544.567742 
L 509.088563 547.2 
L 508.929032 549.832258 
L 508.737595 552.464516 
L 508.514252 555.096774 
L 508.259003 557.729032 
L 507.971848 560.36129 
L 507.652786 562.993548 
L 507.301818 565.625806 
L 506.918944 568.258065 
L 506.504164 570.890323 
L 506.057478 573.522581 
L 505.578886 576.154839 
L 505.068387 578.787097 
L 504.525982 581.419355 
L 503.951672 584.051613 
L 503.345455 586.683871 
L 502.707331 589.316129 
L 502.037302 591.948387 
L 501.335367 594.580645 
L 500.601525 597.212903 
L 499.835777 599.845161 
L 499.038123 602.477419 
L 498.208563 605.109677 
L 497.347097 607.741935 
L 496.453724 610.374194 
L 495.528446 613.006452 
L 494.571261 615.63871 
L 493.58217 618.270968 
L 492.561173 620.903226 
L 491.50827 623.535484 
L 490.42346 626.167742 
L 489.306745 628.8 
L 488.158123 631.432258 
L 486.977595 634.064516 
L 485.765161 636.696774 
L 484.520821 639.329032 
L 483.244575 641.96129 
" clip-path="url(#p9b8601eac4)" style="fill: none; stroke-dasharray: 1.5,2.475; stroke-dashoffset: 0; stroke: #000000; stroke-width: 1.5"/>
   </g>
   <g id="line2d_36">
    <path d="M 587.697361 428.748387 
L 586.421114 431.380645 
L 585.176774 434.012903 
L 583.96434 436.645161 
L 582.783812 439.277419 
L 581.635191 441.909677 
L 580.518475 444.541935 
L 579.433666 447.174194 
L 578.380762 449.806452 
L 577.359765 452.43871 
L 576.370674 455.070968 
L 575.41349 457.703226 
L 574.488211 460.335484 
L 573.594839 462.967742 
L 572.733372 465.6 
L 571.903812 468.232258 
L 571.106158 470.864516 
L 570.340411 473.496774 
L 569.606569 476.129032 
L 568.904633 478.76129 
L 568.234604 481.393548 
L 567.596481 484.025806 
L 566.990264 486.658065 
L 566.415953 489.290323 
L 565.873548 491.922581 
L 565.36305 494.554839 
L 564.884457 497.187097 
L 564.437771 499.819355 
L 564.022991 502.451613 
L 563.640117 505.083871 
L 563.28915 507.716129 
L 562.970088 510.348387 
L 562.682933 512.980645 
L 562.427683 515.612903 
L 562.20434 518.245161 
L 562.012903 520.877419 
L 561.853372 523.509677 
L 561.725748 526.141935 
L 561.630029 528.774194 
L 561.566217 531.406452 
L 561.534311 534.03871 
L 561.534311 536.670968 
L 561.566217 539.303226 
L 561.630029 541.935484 
L 561.725748 544.567742 
L 561.853372 547.2 
L 562.012903 549.832258 
L 562.20434 552.464516 
L 562.427683 555.096774 
L 562.682933 557.729032 
L 562.970088 560.36129 
L 563.28915 562.993548 
L 563.640117 565.625806 
L 564.022991 568.258065 
L 564.437771 570.890323 
L 564.884457 573.522581 
L 565.36305 576.154839 
L 565.873548 578.787097 
L 566.415953 581.419355 
L 566.990264 584.051613 
L 567.596481 586.683871 
L 568.234604 589.316129 
L 568.904633 591.948387 
L 569.606569 594.580645 
L 570.340411 597.212903 
L 571.106158 599.845161 
L 571.903812 602.477419 
L 572.733372 605.109677 
L 573.594839 607.741935 
L 574.488211 610.374194 
L 575.41349 613.006452 
L 576.370674 615.63871 
L 577.359765 618.270968 
L 578.380762 620.903226 
L 579.433666 623.535484 
L 580.518475 626.167742 
L 581.635191 628.8 
L 582.783812 631.432258 
L 583.96434 634.064516 
L 585.176774 636.696774 
L 586.421114 639.329032 
L 587.697361 641.96129 
" clip-path="url(#p9b8601eac4)" style="fill: none; stroke-dasharray: 1.5,2.475; stroke-dashoffset: 0; stroke: #000000; stroke-width: 1.5"/>
   </g>
   <g id="line2d_37">
    <path d="M 624.309677 417.980059 
L 626.941935 419.256305 
L 629.574194 420.500645 
L 632.206452 421.713079 
L 634.83871 422.893607 
L 637.470968 424.042229 
L 640.103226 425.158944 
L 642.735484 426.243754 
L 645.367742 427.296657 
L 648 428.317654 
L 650.632258 429.306745 
L 653.264516 430.26393 
L 655.896774 431.189208 
L 658.529032 432.082581 
L 661.16129 432.944047 
L 663.793548 433.773607 
L 666.425806 434.571261 
L 669.058065 435.337009 
L 671.690323 436.07085 
L 674.322581 436.772786 
L 676.954839 437.442815 
L 679.587097 438.080938 
L 682.219355 438.687155 
L 684.851613 439.261466 
L 687.483871 439.803871 
L 690.116129 440.31437 
L 692.748387 440.792962 
L 695.380645 441.239648 
L 698.012903 441.654428 
L 700.645161 442.037302 
L 703.277419 442.38827 
L 705.909677 442.707331 
L 708.541935 442.994487 
L 711.174194 443.249736 
L 713.806452 443.473079 
L 716.43871 443.664516 
L 719.070968 443.824047 
L 721.703226 443.951672 
L 724.335484 444.04739 
L 726.967742 444.111202 
L 729.6 444.143109 
L 732.232258 444.143109 
L 734.864516 444.111202 
L 737.496774 444.04739 
L 740.129032 443.951672 
L 742.76129 443.824047 
L 745.393548 443.664516 
L 748.025806 443.473079 
L 750.658065 443.249736 
L 753.290323 442.994487 
L 755.922581 442.707331 
L 758.554839 442.38827 
L 761.187097 442.037302 
L 763.819355 441.654428 
L 766.451613 441.239648 
L 769.083871 440.792962 
L 771.716129 440.31437 
L 774.348387 439.803871 
L 776.980645 439.261466 
L 779.612903 438.687155 
L 782.245161 438.080938 
L 784.877419 437.442815 
L 787.509677 436.772786 
L 790.141935 436.07085 
L 792.774194 435.337009 
L 795.406452 434.571261 
L 798.03871 433.773607 
L 800.670968 432.944047 
L 803.303226 432.082581 
L 805.935484 431.189208 
L 808.567742 430.26393 
L 811.2 429.306745 
L 813.832258 428.317654 
L 816.464516 427.296657 
L 819.096774 426.243754 
L 821.729032 425.158944 
L 824.36129 424.042229 
L 826.993548 422.893607 
L 829.625806 421.713079 
L 832.258065 420.500645 
L 834.890323 419.256305 
L 837.522581 417.980059 
" clip-path="url(#p9b8601eac4)" style="fill: none; stroke-dasharray: 1.5,2.475; stroke-dashoffset: 0; stroke: #000000; stroke-width: 1.5"/>
   </g>
   <g id="line2d_38">
    <path d="M 624.309677 131.542522 
L 626.941935 130.266276 
L 629.574194 129.021935 
L 632.206452 127.809501 
L 634.83871 126.628974 
L 637.470968 125.480352 
L 640.103226 124.363636 
L 642.735484 123.278827 
L 645.367742 122.225924 
L 648 121.204927 
L 650.632258 120.215836 
L 653.264516 119.258651 
L 655.896774 118.333372 
L 658.529032 117.44 
L 661.16129 116.578534 
L 663.793548 115.748974 
L 666.425806 114.95132 
L 669.058065 114.185572 
L 671.690323 113.45173 
L 674.322581 112.749795 
L 676.954839 112.079765 
L 679.587097 111.441642 
L 682.219355 110.835425 
L 684.851613 110.261114 
L 687.483871 109.71871 
L 690.116129 109.208211 
L 692.748387 108.729619 
L 695.380645 108.282933 
L 698.012903 107.868152 
L 700.645161 107.485279 
L 703.277419 107.134311 
L 705.909677 106.815249 
L 708.541935 106.528094 
L 711.174194 106.272845 
L 713.806452 106.049501 
L 716.43871 105.858065 
L 719.070968 105.698534 
L 721.703226 105.570909 
L 724.335484 105.475191 
L 726.967742 105.411378 
L 729.6 105.379472 
L 732.232258 105.379472 
L 734.864516 105.411378 
L 737.496774 105.475191 
L 740.129032 105.570909 
L 742.76129 105.698534 
L 745.393548 105.858065 
L 748.025806 106.049501 
L 750.658065 106.272845 
L 753.290323 106.528094 
L 755.922581 106.815249 
L 758.554839 107.134311 
L 761.187097 107.485279 
L 763.819355 107.868152 
L 766.451613 108.282933 
L 769.083871 108.729619 
L 771.716129 109.208211 
L 774.348387 109.71871 
L 776.980645 110.261114 
L 779.612903 110.835425 
L 782.245161 111.441642 
L 784.877419 112.079765 
L 787.509677 112.749795 
L 790.141935 113.45173 
L 792.774194 114.185572 
L 795.406452 114.95132 
L 798.03871 115.748974 
L 800.670968 116.578534 
L 803.303226 117.44 
L 805.935484 118.333372 
L 808.567742 119.258651 
L 811.2 120.215836 
L 813.832258 121.204927 
L 816.464516 122.225924 
L 819.096774 123.278827 
L 821.729032 124.363636 
L 824.36129 125.480352 
L 826.993548 126.628974 
L 829.625806 127.809501 
L 832.258065 129.021935 
L 834.890323 130.266276 
L 837.522581 131.542522 
" clip-path="url(#p9b8601eac4)" style="fill: none; stroke-dasharray: 1.5,2.475; stroke-dashoffset: 0; stroke: #000000; stroke-width: 1.5"/>
   </g>
   <g id="text_1">
    <!-- 75,10 -->
    <g transform="translate(107.049672 147.223891) scale(0.1 -0.1)">
     <defs>
      <path id="DejaVuSans-Bold-37" d="M 428 4666 
L 3944 4666 
L 3944 3988 
L 2125 0 
L 953 0 
L 2675 3781 
L 428 3781 
L 428 4666 
z
" transform="scale(0.015625)"/>
      <path id="DejaVuSans-Bold-35" d="M 678 4666 
L 3669 4666 
L 3669 3781 
L 1638 3781 
L 1638 3059 
Q 1775 3097 1914 3117 
Q 2053 3138 2203 3138 
Q 3056 3138 3531 2711 
Q 4006 2284 4006 1522 
Q 4006 766 3489 337 
Q 2972 -91 2053 -91 
Q 1656 -91 1267 -14 
Q 878 63 494 219 
L 494 1166 
Q 875 947 1217 837 
Q 1559 728 1863 728 
Q 2300 728 2551 942 
Q 2803 1156 2803 1522 
Q 2803 1891 2551 2103 
Q 2300 2316 1863 2316 
Q 1603 2316 1309 2248 
Q 1016 2181 678 2041 
L 678 4666 
z
" transform="scale(0.015625)"/>
      <path id="DejaVuSans-Bold-2c" d="M 653 1209 
L 1778 1209 
L 1778 256 
L 1006 -909 
L 341 -909 
L 653 256 
L 653 1209 
z
" transform="scale(0.015625)"/>
      <path id="DejaVuSans-Bold-31" d="M 750 831 
L 1813 831 
L 1813 3847 
L 722 3622 
L 722 4441 
L 1806 4666 
L 2950 4666 
L 2950 831 
L 4013 831 
L 4013 0 
L 750 0 
L 750 831 
z
" transform="scale(0.015625)"/>
      <path id="DejaVuSans-Bold-30" d="M 2944 2338 
Q 2944 3213 2780 3570 
Q 2616 3928 2228 3928 
Q 1841 3928 1675 3570 
Q 1509 3213 1509 2338 
Q 1509 1453 1675 1090 
Q 1841 728 2228 728 
Q 2613 728 2778 1090 
Q 2944 1453 2944 2338 
z
M 4147 2328 
Q 4147 1169 3647 539 
Q 3147 -91 2228 -91 
Q 1306 -91 806 539 
Q 306 1169 306 2328 
Q 306 3491 806 4120 
Q 1306 4750 2228 4750 
Q 3147 4750 3647 4120 
Q 4147 3491 4147 2328 
z
" transform="scale(0.015625)"/>
     </defs>
     <use xlink:href="#DejaVuSans-Bold-37"/>
     <use xlink:href="#DejaVuSans-Bold-35" transform="translate(69.580078 0)"/>
     <use xlink:href="#DejaVuSans-Bold-2c" transform="translate(139.160156 0)"/>
     <use xlink:href="#DejaVuSans-Bold-31" transform="translate(177.148438 0)"/>
     <use xlink:href="#DejaVuSans-Bold-30" transform="translate(246.728516 0)"/>
    </g>
   </g>
   <g id="text_2">
    <!-- 75,3 -->
    <g transform="translate(110.528579 320.952923) scale(0.1 -0.1)">
     <defs>
      <path id="DejaVuSans-Bold-33" d="M 2981 2516 
Q 3453 2394 3698 2092 
Q 3944 1791 3944 1325 
Q 3944 631 3412 270 
Q 2881 -91 1863 -91 
Q 1503 -91 1142 -33 
Q 781 25 428 141 
L 428 1069 
Q 766 900 1098 814 
Q 1431 728 1753 728 
Q 2231 728 2486 893 
Q 2741 1059 2741 1369 
Q 2741 1688 2480 1852 
Q 2219 2016 1709 2016 
L 1228 2016 
L 1228 2791 
L 1734 2791 
Q 2188 2791 2409 2933 
Q 2631 3075 2631 3366 
Q 2631 3634 2415 3781 
Q 2200 3928 1806 3928 
Q 1516 3928 1219 3862 
Q 922 3797 628 3669 
L 628 4550 
Q 984 4650 1334 4700 
Q 1684 4750 2022 4750 
Q 2931 4750 3382 4451 
Q 3834 4153 3834 3553 
Q 3834 3144 3618 2883 
Q 3403 2622 2981 2516 
z
" transform="scale(0.015625)"/>
     </defs>
     <use xlink:href="#DejaVuSans-Bold-37"/>
     <use xlink:href="#DejaVuSans-Bold-35" transform="translate(69.580078 0)"/>
     <use xlink:href="#DejaVuSans-Bold-2c" transform="translate(139.160156 0)"/>
     <use xlink:href="#DejaVuSans-Bold-33" transform="translate(177.148438 0)"/>
    </g>
   </g>
   <g id="text_3">
    <!-- 75,2 -->
    <g transform="translate(110.528579 407.81744) scale(0.1 -0.1)">
     <defs>
      <path id="DejaVuSans-Bold-32" d="M 1844 884 
L 3897 884 
L 3897 0 
L 506 0 
L 506 884 
L 2209 2388 
Q 2438 2594 2547 2791 
Q 2656 2988 2656 3200 
Q 2656 3528 2436 3728 
Q 2216 3928 1850 3928 
Q 1569 3928 1234 3808 
Q 900 3688 519 3450 
L 519 4475 
Q 925 4609 1322 4679 
Q 1719 4750 2100 4750 
Q 2938 4750 3402 4381 
Q 3866 4013 3866 3353 
Q 3866 2972 3669 2642 
Q 3472 2313 2841 1759 
L 1844 884 
z
" transform="scale(0.015625)"/>
     </defs>
     <use xlink:href="#DejaVuSans-Bold-37"/>
     <use xlink:href="#DejaVuSans-Bold-35" transform="translate(69.580078 0)"/>
     <use xlink:href="#DejaVuSans-Bold-2c" transform="translate(139.160156 0)"/>
     <use xlink:href="#DejaVuSans-Bold-32" transform="translate(177.148438 0)"/>
    </g>
   </g>
   <g id="text_4">
    <!-- 75,1 -->
    <g transform="translate(110.528579 538.114214) scale(0.1 -0.1)">
     <use xlink:href="#DejaVuSans-Bold-37"/>
     <use xlink:href="#DejaVuSans-Bold-35" transform="translate(69.580078 0)"/>
     <use xlink:href="#DejaVuSans-Bold-2c" transform="translate(139.160156 0)"/>
     <use xlink:href="#DejaVuSans-Bold-31" transform="translate(177.148438 0)"/>
    </g>
   </g>
   <g id="text_5">
    <!-- 75,0 -->
    <g transform="translate(110.528579 668.410988) scale(0.1 -0.1)">
     <use xlink:href="#DejaVuSans-Bold-37"/>
     <use xlink:href="#DejaVuSans-Bold-35" transform="translate(69.580078 0)"/>
     <use xlink:href="#DejaVuSans-Bold-2c" transform="translate(139.160156 0)"/>
     <use xlink:href="#DejaVuSans-Bold-30" transform="translate(177.148438 0)"/>
    </g>
   </g>
   <g id="text_6">
    <!-- 4,10 -->
    <g transform="translate(371.122127 147.223891) scale(0.1 -0.1)">
     <defs>
      <path id="DejaVuSans-Bold-34" d="M 2356 3675 
L 1038 1722 
L 2356 1722 
L 2356 3675 
z
M 2156 4666 
L 3494 4666 
L 3494 1722 
L 4159 1722 
L 4159 850 
L 3494 850 
L 3494 0 
L 2356 0 
L 2356 850 
L 288 850 
L 288 1881 
L 2156 4666 
z
" transform="scale(0.015625)"/>
     </defs>
     <use xlink:href="#DejaVuSans-Bold-34"/>
     <use xlink:href="#DejaVuSans-Bold-2c" transform="translate(69.580078 0)"/>
     <use xlink:href="#DejaVuSans-Bold-31" transform="translate(107.568359 0)"/>
     <use xlink:href="#DejaVuSans-Bold-30" transform="translate(177.148438 0)"/>
    </g>
   </g>
   <g id="text_7">
    <!-- 4,2 -->
    <g transform="translate(374.601033 407.81744) scale(0.1 -0.1)">
     <use xlink:href="#DejaVuSans-Bold-34"/>
     <use xlink:href="#DejaVuSans-Bold-2c" transform="translate(69.580078 0)"/>
     <use xlink:href="#DejaVuSans-Bold-32" transform="translate(107.568359 0)"/>
    </g>
   </g>
   <g id="text_8">
    <!-- 3,10 -->
    <g transform="translate(457.986643 147.223891) scale(0.1 -0.1)">
     <use xlink:href="#DejaVuSans-Bold-33"/>
     <use xlink:href="#DejaVuSans-Bold-2c" transform="translate(69.580078 0)"/>
     <use xlink:href="#DejaVuSans-Bold-31" transform="translate(107.568359 0)"/>
     <use xlink:href="#DejaVuSans-Bold-30" transform="translate(177.148438 0)"/>
    </g>
   </g>
   <g id="text_9">
    <!-- 3,3 -->
    <g transform="translate(461.465549 320.952923) scale(0.1 -0.1)">
     <use xlink:href="#DejaVuSans-Bold-33"/>
     <use xlink:href="#DejaVuSans-Bold-2c" transform="translate(69.580078 0)"/>
     <use xlink:href="#DejaVuSans-Bold-33" transform="translate(107.568359 0)"/>
    </g>
   </g>
   <g id="text_10">
    <!-- 3,2 -->
    <g transform="translate(461.465549 407.81744) scale(0.1 -0.1)">
     <use xlink:href="#DejaVuSans-Bold-33"/>
     <use xlink:href="#DejaVuSans-Bold-2c" transform="translate(69.580078 0)"/>
     <use xlink:href="#DejaVuSans-Bold-32" transform="translate(107.568359 0)"/>
    </g>
   </g>
   <g id="text_11">
    <!-- 3,1 -->
    <g transform="translate(461.465549 538.114214) scale(0.1 -0.1)">
     <use xlink:href="#DejaVuSans-Bold-33"/>
     <use xlink:href="#DejaVuSans-Bold-2c" transform="translate(69.580078 0)"/>
     <use xlink:href="#DejaVuSans-Bold-31" transform="translate(107.568359 0)"/>
    </g>
   </g>
   <g id="text_12">
    <!-- 3,0 -->
    <g transform="translate(461.465549 668.410988) scale(0.1 -0.1)">
     <use xlink:href="#DejaVuSans-Bold-33"/>
     <use xlink:href="#DejaVuSans-Bold-2c" transform="translate(69.580078 0)"/>
     <use xlink:href="#DejaVuSans-Bold-30" transform="translate(107.568359 0)"/>
    </g>
   </g>
   <g id="text_13">
    <!-- 2,10 -->
    <g transform="translate(588.283417 147.223891) scale(0.1 -0.1)">
     <use xlink:href="#DejaVuSans-Bold-32"/>
     <use xlink:href="#DejaVuSans-Bold-2c" transform="translate(69.580078 0)"/>
     <use xlink:href="#DejaVuSans-Bold-31" transform="translate(107.568359 0)"/>
     <use xlink:href="#DejaVuSans-Bold-30" transform="translate(177.148438 0)"/>
    </g>
   </g>
   <g id="text_14">
    <!-- 2,3 -->
    <g transform="translate(591.762324 320.952923) scale(0.1 -0.1)">
     <use xlink:href="#DejaVuSans-Bold-32"/>
     <use xlink:href="#DejaVuSans-Bold-2c" transform="translate(69.580078 0)"/>
     <use xlink:href="#DejaVuSans-Bold-33" transform="translate(107.568359 0)"/>
    </g>
   </g>
   <g id="text_15">
    <!-- 2,2 -->
    <g transform="translate(591.762324 407.81744) scale(0.1 -0.1)">
     <use xlink:href="#DejaVuSans-Bold-32"/>
     <use xlink:href="#DejaVuSans-Bold-2c" transform="translate(69.580078 0)"/>
     <use xlink:href="#DejaVuSans-Bold-32" transform="translate(107.568359 0)"/>
    </g>
   </g>
   <g id="text_16">
    <!-- 2,1 -->
    <g transform="translate(591.762324 538.114214) scale(0.1 -0.1)">
     <use xlink:href="#DejaVuSans-Bold-32"/>
     <use xlink:href="#DejaVuSans-Bold-2c" transform="translate(69.580078 0)"/>
     <use xlink:href="#DejaVuSans-Bold-31" transform="translate(107.568359 0)"/>
    </g>
   </g>
   <g id="text_17">
    <!-- 2,0 -->
    <g transform="translate(591.762324 668.410988) scale(0.1 -0.1)">
     <use xlink:href="#DejaVuSans-Bold-32"/>
     <use xlink:href="#DejaVuSans-Bold-2c" transform="translate(69.580078 0)"/>
     <use xlink:href="#DejaVuSans-Bold-30" transform="translate(107.568359 0)"/>
    </g>
   </g>
   <g id="text_18">
    <!-- 1,10 -->
    <g transform="translate(718.580192 147.223891) scale(0.1 -0.1)">
     <use xlink:href="#DejaVuSans-Bold-31"/>
     <use xlink:href="#DejaVuSans-Bold-2c" transform="translate(69.580078 0)"/>
     <use xlink:href="#DejaVuSans-Bold-31" transform="translate(107.568359 0)"/>
     <use xlink:href="#DejaVuSans-Bold-30" transform="translate(177.148438 0)"/>
    </g>
   </g>
   <g id="text_19">
    <!-- 1,2 -->
    <g transform="translate(722.059098 407.81744) scale(0.1 -0.1)">
     <use xlink:href="#DejaVuSans-Bold-31"/>
     <use xlink:href="#DejaVuSans-Bold-2c" transform="translate(69.580078 0)"/>
     <use xlink:href="#DejaVuSans-Bold-32" transform="translate(107.568359 0)"/>
    </g>
   </g>
   <g id="text_20">
    <!-- 1,1 -->
    <g transform="translate(722.059098 538.114214) scale(0.1 -0.1)">
     <use xlink:href="#DejaVuSans-Bold-31"/>
     <use xlink:href="#DejaVuSans-Bold-2c" transform="translate(69.580078 0)"/>
     <use xlink:href="#DejaVuSans-Bold-31" transform="translate(107.568359 0)"/>
    </g>
   </g>
   <g id="text_21">
    <!-- 1,0 -->
    <g transform="translate(722.059098 668.410988) scale(0.1 -0.1)">
     <use xlink:href="#DejaVuSans-Bold-31"/>
     <use xlink:href="#DejaVuSans-Bold-2c" transform="translate(69.580078 0)"/>
     <use xlink:href="#DejaVuSans-Bold-30" transform="translate(107.568359 0)"/>
    </g>
   </g>
   <g id="text_22">
    <!-- 0,10 -->
    <g transform="translate(848.876966 147.223891) scale(0.1 -0.1)">
     <use xlink:href="#DejaVuSans-Bold-30"/>
     <use xlink:href="#DejaVuSans-Bold-2c" transform="translate(69.580078 0)"/>
     <use xlink:href="#DejaVuSans-Bold-31" transform="translate(107.568359 0)"/>
     <use xlink:href="#DejaVuSans-Bold-30" transform="translate(177.148438 0)"/>
    </g>
   </g>
   <g id="text_23">
    <!-- 0,2 -->
    <g transform="translate(852.355872 407.81744) scale(0.1 -0.1)">
     <use xlink:href="#DejaVuSans-Bold-30"/>
     <use xlink:href="#DejaVuSans-Bold-2c" transform="translate(69.580078 0)"/>
     <use xlink:href="#DejaVuSans-Bold-32" transform="translate(107.568359 0)"/>
    </g>
   </g>
   <g id="text_24">
    <!-- 0,1 -->
    <g transform="translate(852.355872 538.114214) scale(0.1 -0.1)">
     <use xlink:href="#DejaVuSans-Bold-30"/>
     <use xlink:href="#DejaVuSans-Bold-2c" transform="translate(69.580078 0)"/>
     <use xlink:href="#DejaVuSans-Bold-31" transform="translate(107.568359 0)"/>
    </g>
   </g>
   <g id="text_25">
    <!-- 3v2 -->
    <g transform="translate(284.332923 94.193407) scale(0.12 -0.12)">
     <defs>
      <path id="DejaVuSans-Bold-76" d="M 97 3500 
L 1216 3500 
L 2088 1081 
L 2956 3500 
L 4078 3500 
L 2700 0 
L 1472 0 
L 97 3500 
z
" transform="scale(0.015625)"/>
     </defs>
     <use xlink:href="#DejaVuSans-Bold-33"/>
     <use xlink:href="#DejaVuSans-Bold-76" transform="translate(69.580078 0)"/>
     <use xlink:href="#DejaVuSans-Bold-32" transform="translate(134.765625 0)"/>
    </g>
   </g>
   <g id="text_26">
    <!-- 2v2 -->
    <g transform="translate(588.35873 94.193407) scale(0.12 -0.12)">
     <use xlink:href="#DejaVuSans-Bold-32"/>
     <use xlink:href="#DejaVuSans-Bold-76" transform="translate(69.580078 0)"/>
     <use xlink:href="#DejaVuSans-Bold-32" transform="translate(134.765625 0)"/>
    </g>
   </g>
   <g id="text_27">
    <!-- 1v2 -->
    <g transform="translate(718.655504 94.193407) scale(0.12 -0.12)">
     <use xlink:href="#DejaVuSans-Bold-31"/>
     <use xlink:href="#DejaVuSans-Bold-76" transform="translate(69.580078 0)"/>
     <use xlink:href="#DejaVuSans-Bold-32" transform="translate(134.765625 0)"/>
    </g>
   </g>
   <g id="text_28">
    <!-- 3v1 -->
    <g transform="translate(284.332923 485.08373) scale(0.12 -0.12)">
     <use xlink:href="#DejaVuSans-Bold-33"/>
     <use xlink:href="#DejaVuSans-Bold-76" transform="translate(69.580078 0)"/>
     <use xlink:href="#DejaVuSans-Bold-31" transform="translate(134.765625 0)"/>
    </g>
   </g>
   <g id="text_29">
    <!-- defeat -->
    <g transform="translate(839.251966 94.193407) scale(0.12 -0.12)">
     <defs>
      <path id="DejaVuSans-Bold-64" d="M 2919 2988 
L 2919 4863 
L 4044 4863 
L 4044 0 
L 2919 0 
L 2919 506 
Q 2688 197 2409 53 
Q 2131 -91 1766 -91 
Q 1119 -91 703 423 
Q 288 938 288 1747 
Q 288 2556 703 3070 
Q 1119 3584 1766 3584 
Q 2128 3584 2408 3439 
Q 2688 3294 2919 2988 
z
M 2181 722 
Q 2541 722 2730 984 
Q 2919 1247 2919 1747 
Q 2919 2247 2730 2509 
Q 2541 2772 2181 2772 
Q 1825 2772 1636 2509 
Q 1447 2247 1447 1747 
Q 1447 1247 1636 984 
Q 1825 722 2181 722 
z
" transform="scale(0.015625)"/>
      <path id="DejaVuSans-Bold-65" d="M 4031 1759 
L 4031 1441 
L 1416 1441 
Q 1456 1047 1700 850 
Q 1944 653 2381 653 
Q 2734 653 3104 758 
Q 3475 863 3866 1075 
L 3866 213 
Q 3469 63 3072 -14 
Q 2675 -91 2278 -91 
Q 1328 -91 801 392 
Q 275 875 275 1747 
Q 275 2603 792 3093 
Q 1309 3584 2216 3584 
Q 3041 3584 3536 3087 
Q 4031 2591 4031 1759 
z
M 2881 2131 
Q 2881 2450 2695 2645 
Q 2509 2841 2209 2841 
Q 1884 2841 1681 2658 
Q 1478 2475 1428 2131 
L 2881 2131 
z
" transform="scale(0.015625)"/>
      <path id="DejaVuSans-Bold-66" d="M 2841 4863 
L 2841 4128 
L 2222 4128 
Q 1984 4128 1890 4042 
Q 1797 3956 1797 3744 
L 1797 3500 
L 2753 3500 
L 2753 2700 
L 1797 2700 
L 1797 0 
L 678 0 
L 678 2700 
L 122 2700 
L 122 3500 
L 678 3500 
L 678 3744 
Q 678 4316 997 4589 
Q 1316 4863 1984 4863 
L 2841 4863 
z
" transform="scale(0.015625)"/>
      <path id="DejaVuSans-Bold-61" d="M 2106 1575 
Q 1756 1575 1579 1456 
Q 1403 1338 1403 1106 
Q 1403 894 1545 773 
Q 1688 653 1941 653 
Q 2256 653 2472 879 
Q 2688 1106 2688 1447 
L 2688 1575 
L 2106 1575 
z
M 3816 1997 
L 3816 0 
L 2688 0 
L 2688 519 
Q 2463 200 2181 54 
Q 1900 -91 1497 -91 
Q 953 -91 614 226 
Q 275 544 275 1050 
Q 275 1666 698 1953 
Q 1122 2241 2028 2241 
L 2688 2241 
L 2688 2328 
Q 2688 2594 2478 2717 
Q 2269 2841 1825 2841 
Q 1466 2841 1156 2769 
Q 847 2697 581 2553 
L 581 3406 
Q 941 3494 1303 3539 
Q 1666 3584 2028 3584 
Q 2975 3584 3395 3211 
Q 3816 2838 3816 1997 
z
" transform="scale(0.015625)"/>
      <path id="DejaVuSans-Bold-74" d="M 1759 4494 
L 1759 3500 
L 2913 3500 
L 2913 2700 
L 1759 2700 
L 1759 1216 
Q 1759 972 1856 886 
Q 1953 800 2241 800 
L 2816 800 
L 2816 0 
L 1856 0 
Q 1194 0 917 276 
Q 641 553 641 1216 
L 641 2700 
L 84 2700 
L 84 3500 
L 641 3500 
L 641 4494 
L 1759 4494 
z
" transform="scale(0.015625)"/>
     </defs>
     <use xlink:href="#DejaVuSans-Bold-64"/>
     <use xlink:href="#DejaVuSans-Bold-65" transform="translate(71.582031 0)"/>
     <use xlink:href="#DejaVuSans-Bold-66" transform="translate(139.404297 0)"/>
     <use xlink:href="#DejaVuSans-Bold-65" transform="translate(182.910156 0)"/>
     <use xlink:href="#DejaVuSans-Bold-61" transform="translate(250.732422 0)"/>
     <use xlink:href="#DejaVuSans-Bold-74" transform="translate(318.212891 0)"/>
    </g>
   </g>
   <g id="text_30">
    <!-- victory -->
    <g transform="translate(403.505323 615.286754) scale(0.12 -0.12)">
     <defs>
      <path id="DejaVuSans-Bold-69" d="M 538 3500 
L 1656 3500 
L 1656 0 
L 538 0 
L 538 3500 
z
M 538 4863 
L 1656 4863 
L 1656 3950 
L 538 3950 
L 538 4863 
z
" transform="scale(0.015625)"/>
      <path id="DejaVuSans-Bold-63" d="M 3366 3391 
L 3366 2478 
Q 3138 2634 2908 2709 
Q 2678 2784 2431 2784 
Q 1963 2784 1702 2511 
Q 1441 2238 1441 1747 
Q 1441 1256 1702 982 
Q 1963 709 2431 709 
Q 2694 709 2930 787 
Q 3166 866 3366 1019 
L 3366 103 
Q 3103 6 2833 -42 
Q 2563 -91 2291 -91 
Q 1344 -91 809 395 
Q 275 881 275 1747 
Q 275 2613 809 3098 
Q 1344 3584 2291 3584 
Q 2566 3584 2833 3536 
Q 3100 3488 3366 3391 
z
" transform="scale(0.015625)"/>
      <path id="DejaVuSans-Bold-6f" d="M 2203 2784 
Q 1831 2784 1636 2517 
Q 1441 2250 1441 1747 
Q 1441 1244 1636 976 
Q 1831 709 2203 709 
Q 2569 709 2762 976 
Q 2956 1244 2956 1747 
Q 2956 2250 2762 2517 
Q 2569 2784 2203 2784 
z
M 2203 3584 
Q 3106 3584 3614 3096 
Q 4122 2609 4122 1747 
Q 4122 884 3614 396 
Q 3106 -91 2203 -91 
Q 1297 -91 786 396 
Q 275 884 275 1747 
Q 275 2609 786 3096 
Q 1297 3584 2203 3584 
z
" transform="scale(0.015625)"/>
      <path id="DejaVuSans-Bold-72" d="M 3138 2547 
Q 2991 2616 2845 2648 
Q 2700 2681 2553 2681 
Q 2122 2681 1889 2404 
Q 1656 2128 1656 1613 
L 1656 0 
L 538 0 
L 538 3500 
L 1656 3500 
L 1656 2925 
Q 1872 3269 2151 3426 
Q 2431 3584 2822 3584 
Q 2878 3584 2943 3579 
Q 3009 3575 3134 3559 
L 3138 2547 
z
" transform="scale(0.015625)"/>
      <path id="DejaVuSans-Bold-79" d="M 78 3500 
L 1197 3500 
L 2138 1125 
L 2938 3500 
L 4056 3500 
L 2584 -331 
Q 2363 -916 2067 -1148 
Q 1772 -1381 1288 -1381 
L 641 -1381 
L 641 -647 
L 991 -647 
Q 1275 -647 1404 -556 
Q 1534 -466 1606 -231 
L 1638 -134 
L 78 3500 
z
" transform="scale(0.015625)"/>
     </defs>
     <use xlink:href="#DejaVuSans-Bold-76"/>
     <use xlink:href="#DejaVuSans-Bold-69" transform="translate(65.185547 0)"/>
     <use xlink:href="#DejaVuSans-Bold-63" transform="translate(99.462891 0)"/>
     <use xlink:href="#DejaVuSans-Bold-74" transform="translate(158.740234 0)"/>
     <use xlink:href="#DejaVuSans-Bold-6f" transform="translate(206.542969 0)"/>
     <use xlink:href="#DejaVuSans-Bold-72" transform="translate(275.244141 0)"/>
     <use xlink:href="#DejaVuSans-Bold-79" transform="translate(324.560547 0)"/>
    </g>
   </g>
  </g>
  <g id="text_31">
   <!-- Risk Dice Rolling Scenarios -->
   <g transform="translate(359.015645 48.1575) scale(0.16 -0.16)">
    <defs>
     <path id="DejaVuSans-Bold-52" d="M 2297 2597 
Q 2675 2597 2839 2737 
Q 3003 2878 3003 3200 
Q 3003 3519 2839 3656 
Q 2675 3794 2297 3794 
L 1791 3794 
L 1791 2597 
L 2297 2597 
z
M 1791 1766 
L 1791 0 
L 588 0 
L 588 4666 
L 2425 4666 
Q 3347 4666 3776 4356 
Q 4206 4047 4206 3378 
Q 4206 2916 3982 2619 
Q 3759 2322 3309 2181 
Q 3556 2125 3751 1926 
Q 3947 1728 4147 1325 
L 4800 0 
L 3519 0 
L 2950 1159 
Q 2778 1509 2601 1637 
Q 2425 1766 2131 1766 
L 1791 1766 
z
" transform="scale(0.015625)"/>
     <path id="DejaVuSans-Bold-73" d="M 3272 3391 
L 3272 2541 
Q 2913 2691 2578 2766 
Q 2244 2841 1947 2841 
Q 1628 2841 1473 2761 
Q 1319 2681 1319 2516 
Q 1319 2381 1436 2309 
Q 1553 2238 1856 2203 
L 2053 2175 
Q 2913 2066 3209 1816 
Q 3506 1566 3506 1031 
Q 3506 472 3093 190 
Q 2681 -91 1863 -91 
Q 1516 -91 1145 -36 
Q 775 19 384 128 
L 384 978 
Q 719 816 1070 734 
Q 1422 653 1784 653 
Q 2113 653 2278 743 
Q 2444 834 2444 1013 
Q 2444 1163 2330 1236 
Q 2216 1309 1875 1350 
L 1678 1375 
Q 931 1469 631 1722 
Q 331 1975 331 2491 
Q 331 3047 712 3315 
Q 1094 3584 1881 3584 
Q 2191 3584 2531 3537 
Q 2872 3491 3272 3391 
z
" transform="scale(0.015625)"/>
     <path id="DejaVuSans-Bold-6b" d="M 538 4863 
L 1656 4863 
L 1656 2216 
L 2944 3500 
L 4244 3500 
L 2534 1894 
L 4378 0 
L 3022 0 
L 1656 1459 
L 1656 0 
L 538 0 
L 538 4863 
z
" transform="scale(0.015625)"/>
     <path id="DejaVuSans-Bold-20" transform="scale(0.015625)"/>
     <path id="DejaVuSans-Bold-44" d="M 1791 3756 
L 1791 909 
L 2222 909 
Q 2959 909 3348 1275 
Q 3738 1641 3738 2338 
Q 3738 3031 3350 3393 
Q 2963 3756 2222 3756 
L 1791 3756 
z
M 588 4666 
L 1856 4666 
Q 2919 4666 3439 4514 
Q 3959 4363 4331 4000 
Q 4659 3684 4818 3271 
Q 4978 2859 4978 2338 
Q 4978 1809 4818 1395 
Q 4659 981 4331 666 
Q 3956 303 3431 151 
Q 2906 0 1856 0 
L 588 0 
L 588 4666 
z
" transform="scale(0.015625)"/>
     <path id="DejaVuSans-Bold-6c" d="M 538 4863 
L 1656 4863 
L 1656 0 
L 538 0 
L 538 4863 
z
" transform="scale(0.015625)"/>
     <path id="DejaVuSans-Bold-6e" d="M 4056 2131 
L 4056 0 
L 2931 0 
L 2931 347 
L 2931 1631 
Q 2931 2084 2911 2256 
Q 2891 2428 2841 2509 
Q 2775 2619 2662 2680 
Q 2550 2741 2406 2741 
Q 2056 2741 1856 2470 
Q 1656 2200 1656 1722 
L 1656 0 
L 538 0 
L 538 3500 
L 1656 3500 
L 1656 2988 
Q 1909 3294 2193 3439 
Q 2478 3584 2822 3584 
Q 3428 3584 3742 3212 
Q 4056 2841 4056 2131 
z
" transform="scale(0.015625)"/>
     <path id="DejaVuSans-Bold-67" d="M 2919 594 
Q 2688 288 2409 144 
Q 2131 0 1766 0 
Q 1125 0 706 504 
Q 288 1009 288 1791 
Q 288 2575 706 3076 
Q 1125 3578 1766 3578 
Q 2131 3578 2409 3434 
Q 2688 3291 2919 2981 
L 2919 3500 
L 4044 3500 
L 4044 353 
Q 4044 -491 3511 -936 
Q 2978 -1381 1966 -1381 
Q 1638 -1381 1331 -1331 
Q 1025 -1281 716 -1178 
L 716 -306 
Q 1009 -475 1290 -558 
Q 1572 -641 1856 -641 
Q 2406 -641 2662 -400 
Q 2919 -159 2919 353 
L 2919 594 
z
M 2181 2772 
Q 1834 2772 1640 2515 
Q 1447 2259 1447 1791 
Q 1447 1309 1634 1061 
Q 1822 813 2181 813 
Q 2531 813 2725 1069 
Q 2919 1325 2919 1791 
Q 2919 2259 2725 2515 
Q 2531 2772 2181 2772 
z
" transform="scale(0.015625)"/>
     <path id="DejaVuSans-Bold-53" d="M 3834 4519 
L 3834 3531 
Q 3450 3703 3084 3790 
Q 2719 3878 2394 3878 
Q 1963 3878 1756 3759 
Q 1550 3641 1550 3391 
Q 1550 3203 1689 3098 
Q 1828 2994 2194 2919 
L 2706 2816 
Q 3484 2659 3812 2340 
Q 4141 2022 4141 1434 
Q 4141 663 3683 286 
Q 3225 -91 2284 -91 
Q 1841 -91 1394 -6 
Q 947 78 500 244 
L 500 1259 
Q 947 1022 1364 901 
Q 1781 781 2169 781 
Q 2563 781 2772 912 
Q 2981 1044 2981 1288 
Q 2981 1506 2839 1625 
Q 2697 1744 2272 1838 
L 1806 1941 
Q 1106 2091 782 2419 
Q 459 2747 459 3303 
Q 459 4000 909 4375 
Q 1359 4750 2203 4750 
Q 2588 4750 2994 4692 
Q 3400 4634 3834 4519 
z
" transform="scale(0.015625)"/>
    </defs>
    <use xlink:href="#DejaVuSans-Bold-52"/>
    <use xlink:href="#DejaVuSans-Bold-69" transform="translate(77.001953 0)"/>
    <use xlink:href="#DejaVuSans-Bold-73" transform="translate(111.279297 0)"/>
    <use xlink:href="#DejaVuSans-Bold-6b" transform="translate(170.800781 0)"/>
    <use xlink:href="#DejaVuSans-Bold-20" transform="translate(237.304688 0)"/>
    <use xlink:href="#DejaVuSans-Bold-44" transform="translate(272.119141 0)"/>
    <use xlink:href="#DejaVuSans-Bold-69" transform="translate(355.126953 0)"/>
    <use xlink:href="#DejaVuSans-Bold-63" transform="translate(389.404297 0)"/>
    <use xlink:href="#DejaVuSans-Bold-65" transform="translate(448.681641 0)"/>
    <use xlink:href="#DejaVuSans-Bold-20" transform="translate(516.503906 0)"/>
    <use xlink:href="#DejaVuSans-Bold-52" transform="translate(551.318359 0)"/>
    <use xlink:href="#DejaVuSans-Bold-6f" transform="translate(628.320312 0)"/>
    <use xlink:href="#DejaVuSans-Bold-6c" transform="translate(697.021484 0)"/>
    <use xlink:href="#DejaVuSans-Bold-6c" transform="translate(731.298828 0)"/>
    <use xlink:href="#DejaVuSans-Bold-69" transform="translate(765.576172 0)"/>
    <use xlink:href="#DejaVuSans-Bold-6e" transform="translate(799.853516 0)"/>
    <use xlink:href="#DejaVuSans-Bold-67" transform="translate(871.044922 0)"/>
    <use xlink:href="#DejaVuSans-Bold-20" transform="translate(942.626953 0)"/>
    <use xlink:href="#DejaVuSans-Bold-53" transform="translate(977.441406 0)"/>
    <use xlink:href="#DejaVuSans-Bold-63" transform="translate(1049.462891 0)"/>
    <use xlink:href="#DejaVuSans-Bold-65" transform="translate(1108.740234 0)"/>
    <use xlink:href="#DejaVuSans-Bold-6e" transform="translate(1176.5625 0)"/>
    <use xlink:href="#DejaVuSans-Bold-61" transform="translate(1247.753906 0)"/>
    <use xlink:href="#DejaVuSans-Bold-72" transform="translate(1315.234375 0)"/>
    <use xlink:href="#DejaVuSans-Bold-69" transform="translate(1364.550781 0)"/>
    <use xlink:href="#DejaVuSans-Bold-6f" transform="translate(1398.828125 0)"/>
    <use xlink:href="#DejaVuSans-Bold-73" transform="translate(1467.529297 0)"/>
   </g>
  </g>
 </g>
 <defs>
  <clipPath id="p9b8601eac4">
   <rect x="36" y="57.6" width="890.36129" height="673.2"/>
  </clipPath>
 </defs>
</svg>
